<svg id="Layer_1" data-name="Layer 1" xmlns="http://www.w3.org/2000/svg" viewBox="0 0 311.11 233.1"><defs><style>.cls-1{fill:#5d84bc;}.cls-2{fill:#efddc9;}.cls-3{fill:#4c77b7;}.cls-4{fill:#f5e5d4;}.cls-5{fill:#718ebe;}.cls-6{fill:#a19896;}.cls-7{fill:#c9bca0;}.cls-8{fill:#77625c;}.cls-9{fill:#cfbdaf;}.cls-10{fill:#3b3427;}.cls-11{fill:#8f8760;}.cls-12{fill:#afa786;}.cls-13{fill:#715c37;}.cls-14{fill:#efba31;}.cls-15{fill:#d98027;}</style></defs><title>logo</title><g id="oWiWpT"><path class="cls-1" d="M113,233.2H2v-37l7-1.5c1,1.77,1,1.77,11.73-1.45l-2.62-4.92c4-3.36,10-4.68,8.43-10.69l9.27,6,12.64-7.07c.15-.19,1.1-2.41,2-2.41,1.48,0,3,1.52,3.73,2a85,85,0,0,1,7.64-5.37c1.36-.76,4.61-.54,4.63-.89a15.93,15.93,0,0,0-.79-7.07c-2-4.64-6.86-5.06-10.56-6v-8.5l4.55-4.06-4.81-1c2.76-1,5.48-2.2,6.59,2.06.27,1.05,2.9,1.5,4.44,2.22l1.31-1.69-3.64-4.68c.57-2,2.1-5.22,1.51-5.67-1.77-1.36-4.37-1.63-6.22-2.2.38-1.88,1.18-3.45.89-4.78-.82-3.8.86-6.79,4.56-8.44,1.16-.51,2.1-2.37,2.4-3.76s-.38-2.9-.63-4.36l2,.2,7.75,1.18c4.21,3.24,8.35,6.68,14.28,4.78.36,3.76,3.19,4.48,6.17,5l7.7,1.17,3.18-3.51c5.31,3.92,10.62,7.89,16,11.77,1.43,1,3,1.83,4.57,2.74l1.35,1.83,1,1,.08,0c-.41,3.66,2.1,5.82,4.2,8.18l-1.91,2.16-4.38-2.08,1.16,5.08q.07.3.13.61c-3.71-.59-5.87-6.06-10.62-3.36l-1.15-2.31c1.25-.12,2.07-.13,2.86-.28s1.5-.43,3.81-1.11c-2.47-3.2-4.15-6.08-6.55-8.09-.79-.66-3.45.94-5.26,1.5,1.91,3.52-.87,5.87-1.89,8.75-.48,1.37.67,3.76,1.77,5.14,1.9,2.39,4.68,4.1,6.44,6.56,2.4,3.37,4.48,2.31,5.27-.5,1-3.55,3.55-4.31,6.25-5.35l1.76,2.19,2.09,4.06-5.29,2.16,3.74,6.5,4.73-5.51,2.54,9.13-7.7,3.29-2.25.28c-2.16-1.81-4.36-3.59-6.47-5.46a18,18,0,0,1-1.87-2.27,7.61,7.61,0,0,0-1.44,2.24c-.63,3-2.18,3.83-5.19,2.41a14.06,14.06,0,0,0,1.05-2.64c.26-1.42.28-2.88.41-4.32-1.31.53-2.86.78-3.9,1.65-3.71,3.1-6.83,7.19-11,9.4-4,2.12-5.46,4-3.47,8h0a17.67,17.67,0,0,0-4.31.93,33.34,33.34,0,0,0-4.55,3.19,46,46,0,0,0,5.92,1.63c.81.12,1.84-.65,2.66-1.18,4.69-3.08,6.31-8.45,9.38-12.73l1.86.16,1.35.87,8,3.52.31.2h0l1.41,1.09c3,3.45-2.66,4.86-1.25,8.11l-5-.56-3.22,6.73L122.5,193l.13-1.59,3.74,5L119.95,198l3.63,6.72c-2.75,4.43-5.1,1.72-8-1.25.23,3.74-5.14,4.61-2,8.4-1.29.69-2.55,1.88-3.86,1.93-1.71.06-3.42-1-5.17-1.21-4.33-.57-8.69-.94-13.62-1.46a16.62,16.62,0,0,0,.33,3.18c.44,1.85,1.63,3.62,1.69,5.45.15,4.49,2.49,5.77,6.52,5.42a6.45,6.45,0,0,1,3.45.53,56.63,56.63,0,0,1,6.39,4.16A46.88,46.88,0,0,1,113,233.2ZM51.74,199.46c-2,6.92-.93,8.1,5.71,7.09,3.21-.49,6.49-.68,9.63-1.44s6.56-2,5.13-5.68c3.87-1.25,7.57-2.21,11.06-3.67a7.28,7.28,0,0,0,3.29-3.5c.25-.54-1.43-2.84-2-2.75a9.1,9.1,0,0,0-4.6,2.14c-1,.94-1.24,2.67-1.82,4-1.4-2.34-1.64-4.6-2.19-6.78-.24-.94-1-2.29-1.76-2.4-.88-.14-2.74.77-2.77,1.3a37.85,37.85,0,0,0,.68,6.43C66.19,201.19,61.66,202.48,51.74,199.46ZM99.9,153.62c8.6.22,5.67-6.33,7.56-9.77l-1.59-.95Zm-33.36,5.46c4.07,3.23,8.86,2.22,9.92-2.11C68.45,157,68.45,157,66.53,159.07Zm30.28,18-5.76-4.57C92.75,174.14,91,179.9,96.82,177.12ZM86.53,216.68l1.38-.37-1.3-4.66-1.24.33Z"/><path class="cls-2" d="M220,1.2H312v232H236c-1-2.82-1.31-5.44,2-7l7-2.84L244,219.13l11.58,2.57,2.54,4.79a12.66,12.66,0,0,0,2.66-.64c-.13-3.71,2.7-4.42,5.26-5.43l3.93,1.94-.31-4-.6-2.2c1.75-1.31,3.64-3.88,5.24-3.71,5.76.62,5.59-2.38,4.74-6.28l.07,0a4.68,4.68,0,0,0,.92-.06l1.05-1.81,1-1.07v0l4.16-3c5.35,1.57,11,4.83,14.61-2.86.25-.54,1.28-.73,2.21-1.22-.74-.91-1.23-2-1.73-2.05-6-.06-2.71-3.27-1.89-5.54.2-.55,1.11-.84,1.34-1.39a2.42,2.42,0,0,0,0-2c-.21-.34-1.25-.45-1.76-.25-6,2.36-11.28-.12-16.83-1.87,2.82-6.57,1.92-7.72-4.7-6.95a13.55,13.55,0,0,1-1.49,0l0-1.94,5.62-4.62.2.73,5.25-2c3.64.83,6-.5,7.06-4.13l0,0,4.06-2.86-.53-1-4.53.32,0-2.49c1-1.37,2.75-2.81,2.64-4.08-.1-1.09-2.33-2-3.71-2.93-1.2-.77-2.52-1.34-3.79-2l-.3-1,.35-2c3.64-.09,7.27-.15,10.91-.29,1.52-.06,4.34-.2,4.36-.43a72.78,72.78,0,0,0-.24-8.24l-5.63.85-1.08-7.62,6.42-.57c-.68-1.17-1.36-3.4-2.1-3.43-4.54-.15-3.79-2.79-2.69-5.35s.88-4-1.5-5.89c-1.36-1.06-2.49-4.95-1.79-5.66,2.91-3,2-5.87,1.48-9.21-1.7-10.61-.25-13.52,8.09-16.51-3-4.24-7.37-8-8.4-12.51-1.54-6.74-7.58-7.5-11.41-10.87-2.42-2.13-3.53-3.37-2.58-6.26h0c.42-.81,1.41-1.92,1.17-2.39-2.09-4-4.93-7.71-6.51-11.89-1.85-4.92-5.31-5-9.41-4.77a42.88,42.88,0,0,1-5.91-.58c1.4-2.08,2.31-3.2,3-4.46,1.85-3.49.5-6.33-3.24-5.78-7.12,1-9.6-5.09-12.57-8.74-2.77-3.4-5.76-4.35-8.21-3-4.26,2.4-7.59.81-11.29-.43h0L230,6l-1-.26-1.34,1.8c-2.1-1.36-3.73-2.24-5.15-3.39A18.29,18.29,0,0,1,220,1.2Z"/><path class="cls-3" d="M66.12,112c.25,1.46.92,3,.63,4.36s-1.23,3.25-2.4,3.76c-3.71,1.64-5.39,4.64-4.56,8.44.29,1.34-.5,2.9-.89,4.78,1.85.57,4.45.84,6.22,2.2.59.45-.94,3.67-1.51,5.67l3.64,4.68-1.31,1.69c-1.54-.72-4.17-1.17-4.44-2.22-1.11-4.27-3.83-3-6.59-2.06l4.81,1-4.55,4.06v8.5c3.7.94,8.52,1.37,10.56,6a15.93,15.93,0,0,1,.79,7.07c0,.35-3.27.13-4.63.89a85,85,0,0,0-7.64,5.37c-.77-.46-2.24-2-3.73-2-.95,0-1.9,2.22-2,2.41l-12.64,7.07-9.27-6c1.59,6-4.47,7.33-8.43,10.69l2.62,4.92C10.05,196.47,10.05,196.47,9,194.7l-7,1.5V46.2l9.21,2c.59,1,1,2.23,1.8,2.84,2.91,2.11,7.19,6.37,8.8,5.56,7-3.53,9.7,2.15,13.84,4.89,1.33.88,2.64,1.79,4,2.68.88,2.34,1.84,4.65,2.64,7,1.41,4.18,4,8.44,3.78,12.57-.24,5.6,3.1,8.16,5.82,11.91s.89,10,6.25,12.74l5.83,2.6ZM42.78,176c-.66-.26-1.08-.59-1.41-.52s-.52.57-.77.88c.37.19.75.56,1.1.53S42.29,176.44,42.78,176Zm8.88-32.81.81-1.08c-.33-.23-.68-.67-1-.64s-.57.51-.86.8Zm7.82-4.76c.25.11.55.36.73.29s.23-.46.34-.71c-.25-.11-.55-.36-.73-.29S59.59,138.19,59.48,138.44Zm2.31,24.19c-.11.25-.37.56-.29.75a.55.55,0,0,0,1-.39C62.43,162.8,62,162.75,61.79,162.63Z"/><path class="cls-4" d="M282,54.2c-1,2.88.16,4.13,2.58,6.26,3.83,3.37,9.87,4.13,11.41,10.87,1,4.52,5.41,8.27,8.4,12.51-8.34,3-9.79,5.91-8.09,16.51.54,3.34,1.42,6.26-1.48,9.21-.7.71.43,4.59,1.79,5.66,2.38,1.86,2.59,3.36,1.5,5.89s-1.85,5.2,2.69,5.35c.75,0,1.42,2.26,2.1,3.43l-6.42.57,1.08,7.62,5.63-.85a72.78,72.78,0,0,1,.24,8.24c0,.24-2.83.38-4.36.43-3.63.14-7.27.2-10.91.29l-.1-1c2.6-5.5-.16-11.32-6.87-14.45l-4.29-3.94c0-2.8.13-5.62-.05-8.41a8.73,8.73,0,0,0-1.29-3.56c-1.47-2.55-3.09-5-4.65-7.51,1.17-4.69-1.76-10.6,4.2-13.87a42.49,42.49,0,0,0,3.77-2.6l-.16-1.29c-2.11,0-4.22,0-6.33,0-3.91-.07-7.82-.11-11.73-.27-4.25-.18-8.49-.6-12.73-.63-.64,0-1.28,1.59-1.93,2.44l-5,.21a54.17,54.17,0,0,1-5.35-2.11c-2.46-1.27-6.43-2.37-6.88-4.24-1.4-5.81-4.24-4.47-7.72-2.69l-2-1c1.07-1.67,1.78-3.9,3.29-4.9,4.55-3,7.81-9.53,6.72-14.91-.56-2.74-1.4-5.42-2-8.15-1.48-6.51-2.7-13.09-4.46-19.52-.6-2.18-2.49-4-3.79-6l-2.05.57c-.55,2-1.77,4-1.52,5.86.47,3.52-.9,5.13-4.4,4.7-1.53-.18-3.2.8-4.81,1.26l-2.35,4.38-1.61-1.43-.2-2.9c.28-.7.83-2,.8-2-5.48-2.44-1-5-.53-7.83,7.2,4.15,9.89-3.85,15.2-4.24l-4.06-5.1L207,24.2l1.64-2.11-1-.5L207,24.2l-6.45,2.35,2.3-6.7c-7,.92-4.59,9.3-10,11l.83,1.06,6.77-3.81c-.92,3.19-1,5.8-2.26,7.32-2,2.38-.08,3.32.81,4.77l-3,2-.2.34.2-.35c.74.5,2.15,1,2.13,1.5-.25,4.31,2.69,6,5.87,7.49l-2,4-5,6-12,8-4-5L179.29,54c3.43-2.78-2.15-3.61-1.26-5.83l-1-7L178.23,38l-1.39-.16.2,3.35-1.37-.13a1,1,0,0,0-.57-.67c-.16-2.24.36-4.87-.65-6.62-1.44-2.5-.34-7-5-7.28L168.37,26,168,24.21l.21.33.36-.15,2.82-1.18,11.41,2.18,1-1.16L180.3,17.7h2.89l-.41-1.8L175.34,18l.85-3-3.75-2-2.94,4.15-1.25-.46L167.35,9l6,1.06,1.94-4.57.65,4.08c2.92.34,5.84-.09,7.74,1.1,2.27,1.42,3.67,4.23,5.89,7L189,21.2l-3.49,2,4.95,2.55L189,21.2l4.7-2.4-.45-1.67,9.26-.65.13,1.06,4-3.29c-2.47-2.53-1.63-4.11,1.18-6.12,2.24-1.6,3.5-4.56,5.2-6.91h7a18.29,18.29,0,0,0,2.41,2.93c1.42,1.15,3.05,2,5.15,3.39l1.34-1.8L230,6,229,12.2l-1.53,1,.58.58L229,12.2c3.7,1.23,7,2.83,11.29.43,2.45-1.38,5.43-.43,8.21,3,3,3.65,5.46,9.78,12.57,8.74,3.74-.55,5.09,2.29,3.24,5.78-.67,1.25-1.57,2.38-3,4.46a42.88,42.88,0,0,0,5.91.58c4.1-.22,7.56-.15,9.41,4.77,1.57,4.18,4.42,7.88,6.51,11.89.24.47-.75,1.57-1.17,2.39-2.52-3.4-2.57-3.41-4.46-.26Zm-4,29.09,6.06,3.89.65-.83L281,80.14l1.91-6.6-6.8,3.7-7.62-7.77c-3.15,5.16-3.14,5.15,2.53,8.26a22.26,22.26,0,0,1,2,1.38ZM224.29,5.76c-2.13.85-3.66,1-3.82,1.61-.31,1.09.16,2.41.3,3.63l1.45.09ZM181.52,29.45l.48,1.89,4.62-1.47-.52-1.72ZM182.78,39l1-.87-1.81-1.55-.61.61ZM179,34.32c-.22-.61-.26-1.14-.55-1.39a1.18,1.18,0,0,0-1.05.32,1.52,1.52,0,0,0,.29,1.24C177.79,34.64,178.39,34.4,179,34.32ZM294.56,95a4.48,4.48,0,0,0-1.21-.64,1.1,1.1,0,0,0-.72.41c.1.35.34.93.53.92C293.53,95.73,293.89,95.4,294.56,95Zm-106-58.1c-.25-.11-.55-.35-.73-.29s-.23.46-.34.7c.25.11.55.36.73.29S188.48,37.2,188.59,36.95Z"/><path class="cls-3" d="M147,1.2h1l5.83,5.33.69-3.84,1.26-.16L157,7.73l1,.13L159,1.2h1l.3,3.21c.38,3.23-3.2,7.9,3.25,8.92l.53,2.91h-8.39l-.05,1.52,7.11,1.85-.3,5.87v.3L156,22.11l-1.6,13.1c-7.91-9.3-12.22-.53-17.23,1.44l4.34,7.22-5.2-.45L135,49.21h0c-4.46-.79-6.16,1-5.94,6.19.14,3.38-.8,5.25-4.91,5.65-2.51.24-6.1,2.53-6.86,4.72a12.31,12.31,0,0,1-7.54,7.74c-2.91,3.68,1.16,8.4-3.8,10.81l-.92.85-.83-2.95c.08-.12.27-.29.24-.35a4.48,4.48,0,0,0-.48-.63l-6.77-6.16a2.58,2.58,0,0,0-.09-.68L94,65.4,80.89,49.21l-.86-1c-.86-1.62-1.46-3.48-2.64-4.81-2.28-2.57-4.89-4.85-7.36-7.24L67,29.5a22.25,22.25,0,0,0-2.43-2.09c-4.82-3.1-9.69-6.14-14.54-9.2-.32-.37-.56-.89-1-1.07C40.22,13,31.33,8.89,22.51,4.68A51.74,51.74,0,0,1,17,1.2H128l2.84,3.05,4-1.14,6.88,3.14L141,1.2h1l.85,1.4L144,1.2h3Zm-2.38,24.22a4.54,4.54,0,0,0,.73.37c.06,0,.28-.23.26-.3a3.26,3.26,0,0,0-.36-.6Z"/><path class="cls-5" d="M113,233.2a46.88,46.88,0,0,0-3.73-3.36,56.63,56.63,0,0,0-6.39-4.16,6.45,6.45,0,0,0-3.45-.53c-4,.34-6.36-.94-6.52-5.42-.06-1.83-1.24-3.6-1.69-5.45a16.62,16.62,0,0,1-.33-3.18c4.93.51,9.29.89,13.62,1.46,1.75.23,3.47,1.27,5.17,1.21,1.31,0,2.58-1.24,3.86-1.93-3.1-3.78,2.27-4.66,2-8.4,2.85,3,5.21,5.68,8,1.25L119.95,198l6.43-1.54-3.74-5L122.5,193l-11.84,3.17,3.22-6.73,5,.56c-1.42-3.25,4.26-4.66,1.25-8.11l3.36.51h0l9.64,5.78-7.1,4.06c9.12,3.72,17.95,4,26.89,3l2.1,4.83c.2,1.4,1,3,.5,4.16-1.89,4.51.87,4.88,4.07,5.07,4.51,3.16,7.94.88,11.2-2.24l7.22-.15a49.4,49.4,0,0,1,5.85-4.14c1.19-.62,2.83-.37,4.28-.51l-4.77,8L184,222c5.09-3.39,7.73-1,9.24,3.41a75,75,0,0,1,1.82,7.8ZM105.59,222a5.18,5.18,0,0,0-.77-.31c-.05,0-.27.29-.24.35a4.57,4.57,0,0,0,.52.63Z"/><path class="cls-5" d="M225,233.2H204c-1.87-5.08-3.23-10.18-.93-14.76l-7.55-5.89,1.43-4.39,4.51-18.51,9.84-4c-.58-3.93.71-6,4.8-5.51a.84.84,0,0,0,.62.19l2.2,5.8c-.24.53-.81,1.18-.67,1.56,2,5.12,4,10.2,6,15.29,0,3.8-1.33,6.91-4.65,9l-2.63,2.23c-2.44.15-5-.09-7.29.58-1.69.5-3.15,2.07-4.44,3.42-.33.35.13,2.12.71,2.52,2.23,1.53,4.67,2.76,6.4,3.75L217,214.17l1-.14c1.32.1,2.79-.11,3.93.4s2,1.74,3,2.65a29.91,29.91,0,0,1-3.44,1.51,24.41,24.41,0,0,1-3.88.41c7.86,3.7,8.34,5.86,3.71,11.41Z"/><path class="cls-2" d="M189,21.2l.54-3.49c-2.23-2.77-3.62-5.58-5.89-7-1.9-1.19-4.81-.76-7.74-1.1l-.65-4.08-1.94,4.57-6-1.06.89,7.69,1.25.46L172.44,13l3.75,2-.85,3,7.44-2.08.41,1.8H180.3l3.58,6.54-1,1.16-11.41-2.18-2.26.13L162,1.2h51c-1.7,2.36-3,5.31-5.2,6.91-2.81,2-3.65,3.59-1.18,6.12l-4,3.29-.13-1.06-9.26.65.45,1.67L189,21.2Z"/><path class="cls-6" d="M197,208.16l-1.43,4.39,7.55,5.89c-2.3,4.58-.94,9.69.93,14.76h-9a75,75,0,0,0-1.82-7.8c-1.51-4.39-4.15-6.79-9.24-3.41l-.65-11.72,4.77-8,8.14-4.85.81.88-6.57,10.52Z"/><path class="cls-2" d="M2,35.2v-3c4.21-2.64.87-6.83,2.06-10.09l0-.08c3.05-2,5.89-5,9.22-5.71s5.32-1.86,6-5.15L21,13.1l-3,13.09c-.89,4.38-3.29,9.17-2.25,13,1.09,4,0,3.77-2.69,3.77L13,29.17l4.25-8.69c-5.54.59-6.45,4.09-7.28,7.65.13,3.59.37,7.18.33,10.76,0,1.1-.78,2.18-1.21,3.28C7.17,39.42,7.58,34.29,2,35.2Z"/><path class="cls-4" d="M21,13.1l-1.68-1.92c-1.8-.39-4.27-1.71-5.26-1-3.62,2.64-6.74,6-10.05,9l-2-1V1.2h8c1.62,1.92,3.17,5.42,4.86,5.48,6.77.26,9.32,4.51,11.3,9.81L23,24.23a26.56,26.56,0,0,0,0-5.34A39,39,0,0,0,21,13.1Z"/><path class="cls-2" d="M26.2,16.5c-2-5.3-4.54-9.55-11.3-9.81C13.2,6.62,11.65,3.12,10,1.2h7a51.74,51.74,0,0,0,5.48,3.48C31.33,8.89,40.22,13,49.07,17.13c.4.19.64.71,1,1.07l-2,2-4.93-.9c.19-3.15-1.94-3.21-4.17-3.13L32,15.2l-2.6-2.77-1.3,3.13Z"/><path class="cls-6" d="M219.69,212c3.32-2.08,4.65-5.2,4.65-9l1.83,1.17.18,2-2.21,4.57,3,2.79,2,3L227,233.2h-2l-3.72-2.79c4.63-5.55,4.15-7.71-3.71-11.41a24.41,24.41,0,0,0,3.88-.41,29.91,29.91,0,0,0,3.44-1.51c-1-.91-1.82-2.14-3-2.65s-2.61-.29-3.93-.4Z"/><path class="cls-7" d="M227,233.2l2.14-16.66,3.85.82,2.13,1.65-3,2.29,6,4.91c-3.35,1.55-3,4.17-2,7Z"/><path class="cls-8" d="M2,35.2c5.55-.91,5.14,4.21,7.07,7L11,46.43l.24,1.74L2,46.2v-5c3.64-1.67,2.45-3.33,0-5Z"/><path class="cls-6" d="M162,1.2l7.13,22.14-.56,1.06-.36.15-.21-.33-2.93-.28-1-7.69-.53-2.91-3.25-8.92L160,1.2Z"/><path class="cls-5" d="M159,1.2,158,7.86l-1-.13-1.18-5.2-1.26.16-.69,3.84L148,1.2Z"/><path class="cls-5" d="M141,1.2l.72,5.06-6.88-3.14L135,1.2Z"/><path class="cls-9" d="M4.09,22.11C2.9,25.37,6.25,29.56,2,32.2v-9Z"/><path class="cls-2" d="M135,1.2l-.17,1.92-4,1.14L132,1.2Z"/><path class="cls-7" d="M2,36.2c2.45,1.67,3.64,3.33,0,5Z"/><path class="cls-2" d="M4.09,22.11,2,23.2v-5l2,1L4.14,22Z"/><path class="cls-5" d="M132,1.2l-1.16,3.05L128,1.2Z"/><path class="cls-5" d="M144,1.2l-1.15,1.4L142,1.2Z"/><path class="cls-10" d="M152.89,195.29c-8.94,1-17.77.67-26.89-3l7.1-4.06-9.64-5.78,1.28-1.55-.83-.41-.45,1.95-3.36-.51-1.41-1.09h0l-.31-.2-2.45-1.91.46-.88,5.47.78,2.89-.23,11.9,1.73,3.44-3.83,4,1.93,3.14-.09,6.8,3.21,3.18-2.62v4.65l-6.53,4.12,2.23,5.94Zm-4.78-3.9-.26-.65-12-1.45-.14,2.1Z"/><path class="cls-6" d="M96.3,123.12c-3-.53-5.81-1.25-6.17-5,0-.6.28-1.66.09-1.74-4.93-2.19-9.9-4.28-14.87-6.39l-2.1-2.54L64.32,101l-1.17-1-3,5.12L54.84,93.35l6.32.58-.27-5.76L64,82.72l2,.52,5.18,16.39c4.22-.14,5.81-8.07,10.07-1.49.62,3,1,6,1.93,8.93,1.08,3.4,2.35,6.94,7.35,6.4l.3-3,4.12,2c-2.55,2.5-4.54,4.91,0,7.53C95.8,120.47,95.9,122.06,96.3,123.12Z"/><path class="cls-5" d="M132.14,174.88l7.7-3.29-2.54-9.13L132.57,168l-3.74-6.5,5.29-2.16L132,155.26c2.78-.36,5.53-1.34,5.52-4.46,0-1.49-2.07-3-3.2-4.46-2.11-2.36-4.62-4.52-4.21-8.18l11,8a71.94,71.94,0,0,0,.68,7.77c.22,1.18,1.36,2.18,2.08,3.26l4.36,1.16,4,5.41c-1.07,1.22-2.46,2.31-3.06,3.73-.26.6,1.14,1.91,1.79,2.89l-4,4.46a1.34,1.34,0,0,0-.94.1l-1.75-.05Z"/><path class="cls-5" d="M130.27,153.07c-2.7,1-5.26,1.81-6.25,5.35-.79,2.8-2.86,3.87-5.27.5-1.76-2.46-4.55-4.17-6.44-6.56-1.1-1.38-2.25-3.77-1.77-5.14,1-2.89,3.8-5.23,1.89-8.75,1.81-.56,4.47-2.16,5.26-1.5,2.4,2,4.08,4.88,6.55,8.09-2.31.68-3,1-3.81,1.11s-1.61.17-2.86.28l1.15,2.31c4.75-2.7,6.91,2.77,10.62,3.36Z"/><path class="cls-5" d="M51.74,199.46c9.92,3,14.45,1.73,20.37-5.21a37.85,37.85,0,0,1-.68-6.43c0-.53,1.89-1.45,2.77-1.3.72.12,1.52,1.47,1.76,2.4.55,2.18.79,4.44,2.19,6.78.58-1.38.83-3.11,1.82-4a9.1,9.1,0,0,1,4.6-2.14c.54-.09,2.23,2.21,2,2.75a7.28,7.28,0,0,1-3.29,3.5c-3.49,1.46-7.19,2.43-11.06,3.67,1.43,3.68-1.86,4.89-5.13,5.68s-6.42,1-9.63,1.44C50.81,207.55,49.79,206.38,51.74,199.46Zm14.89,2.11c.46.2.86.51,1,.42a4.32,4.32,0,0,0,.88-1c-.27-.15-.63-.48-.8-.4A5.4,5.4,0,0,0,66.63,201.56Z"/><path class="cls-5" d="M107.14,176c-3.08,4.29-4.69,9.65-9.38,12.73-.82.54-1.85,1.31-2.66,1.18a46,46,0,0,1-5.92-1.63,33.34,33.34,0,0,1,4.55-3.19A17.67,17.67,0,0,1,98,184.2l.33.19L98,184.2c-2-4.07-.52-5.92,3.47-8,4.15-2.21,7.26-6.3,11-9.4,1-.86,2.58-1.11,3.9-1.65-.12,1.44-.15,2.9-.41,4.32a14.06,14.06,0,0,1-1.05,2.64c3,1.42,4.56.62,5.19-2.41a7.61,7.61,0,0,1,1.44-2.24,18,18,0,0,0,1.87,2.27c2.12,1.87,4.31,3.65,6.48,5.46l-9.48.94L110,171.79Z"/><path class="cls-7" d="M96.3,123.12c-.4-1.06-.5-2.65-1.26-3.09-4.55-2.62-2.56-5,0-7.53l10.05,6.75-1.08,5Z"/><path class="cls-6" d="M104,124.29l1.08-5c1.67-.06,3.54-.63,5-.06a65.12,65.12,0,0,1,7.76,4.24L128,133.33l-.21,2c-1.53-.91-3.13-1.7-4.57-2.74-5.37-3.89-10.68-7.86-16-11.77Z"/><path class="cls-8" d="M120.4,176.1l9.48-.94,2.25-.28,12.1.05-1.77,2.21-2.39-.9-3.44,3.83-11.9-1.73-1.66-1.09Z"/><path class="cls-8" d="M64.32,101l8.92,6.48-5.15,4.71-2-.2-2.18-1Z"/><path class="cls-6" d="M120.4,176.1l2.68,1.15-1.23,1.32-5.47-.78-.46.88,2.45,1.91-8-3.52-1.35-.87-1.86-.16,2.82-4.24Z"/><path class="cls-7" d="M127.74,135.29l.21-2,3.13,1.52L144,145.14l-2.88,1.05-11-8-.08,0-1-1Z"/><path class="cls-8" d="M75.35,110c5,2.11,9.94,4.2,14.87,6.39.19.08-.05,1.14-.09,1.74-5.93,1.9-10.07-1.54-14.28-4.78Z"/><path class="cls-9" d="M130.27,153.07l-.92-1c0-.2-.08-.41-.13-.61l3.22-3,1.91-2.16c1.13,1.49,3.2,3,3.2,4.46,0,3.12-2.74,4.09-5.52,4.46Z"/><path class="cls-5" d="M99.9,153.62l6-10.71,1.59.95C105.57,147.29,108.49,153.83,99.9,153.62Z"/><path class="cls-3" d="M66.53,159.07C68.45,157,68.45,157,76.45,157,75.39,161.29,70.61,162.31,66.53,159.07Z"/><path class="cls-10" d="M75.35,110l.49,3.35-7.75-1.18,5.15-4.71Z"/><path class="cls-5" d="M96.82,177.12c-5.86,2.78-4.07-3-5.76-4.57Z"/><path class="cls-5" d="M86.53,216.68,85.38,212l1.24-.33,1.3,4.66Z"/><path class="cls-5" d="M132.44,148.5l-3.22,3-1.16-5.08Z"/><path class="cls-5" d="M129.09,137.13l1,1Z"/><path class="cls-5" d="M109,176.19l1.35.87Z"/><path class="cls-6" d="M118.69,180.78h0Z"/><path class="cls-10" d="M216.75,180.34a.84.84,0,0,1-.62-.19l-11.91-3-2.36-4.56,45.69,15,.76-12.77,1.29-5.75,1.32-4.86,1.24-7.05,2-2.2,7.95-18.88.9-1.84,1.27-2.05,8.88-.71,4.88.72c3.41,3.2,1.42,6.25-.17,8.48l10.26,4.48.1,1-.35,2-.91.73-6.89-.55-7-.09-4-2.42c-2.62,2.84-4.44,10.13-3.13,11.63l5.32-2.28,1.82,2.42,2.92-.43,1.07-.31,5.85,3.41-6.72,9.92-.81-.68.6,4.69q0,1,0,1.94c-1,.89-2.57,1.6-2.92,2.69-1.28,4-2.16,8.18-3.2,12.28l-2.26,5.62-.84-.13.56.56a1,1,0,0,1,0,.65l-.08,1.54h-.06l-1.2-.13a1.58,1.58,0,0,1-.65-.23c-1.49-3.13-2.8-6.37-4.58-9.33-.53-.88-2.36-1-3.59-1.44-.74,4.92-4.47,2.48-7.06,2.88-2-.73-3.9-1.55-5.9-2.19C235,186,225.89,183.2,216.75,180.34Z"/><path class="cls-7" d="M269.84,191.12c1-4.1,1.91-8.26,3.2-12.28.35-1.1,1.91-1.8,2.92-2.69a13.66,13.66,0,0,0,1.49,0c6.62-.77,7.52.38,4.7,6.95,5.55,1.75,10.81,4.23,16.83,1.87.51-.2,1.54-.09,1.76.25a2.42,2.42,0,0,1,0,2c-.23.55-1.15.84-1.34,1.39-.82,2.27-4.11,5.48,1.89,5.54.5,0,1,1.14,1.73,2.05-.93.49-2,.68-2.21,1.22-3.59,7.69-9.25,4.43-14.61,2.86l-4.16,3v0l-1,1.07-1,1.81-.92.05-.07,0c-2-3.44-3.92-4.7-5.49.32-.11.34-.8.51-1.22.75l-1.15-1.11-.44-.68a99.63,99.63,0,0,0,1-10.16C271.76,193.93,270.51,192.52,269.84,191.12ZM283.31,196l.11-1.3-5.4-5.31c-.36,1.08-1.34,3.16-1.07,3.34A54.71,54.71,0,0,0,283.31,196Z"/><path class="cls-11" d="M235.15,219,233,217.36l1.92-5.08,9-2.62.14-2.61c4.5,5,12.31,5.9,19.12,2.1l3.72.12-1,2.94.64,2.93c-3.52,3.28-9.77,4.51-8.53,11.37l-2.54-4.79L244,219.13Z"/><path class="cls-7" d="M280.06,148.35l6.89.55,1.21.29c1.27.66,2.59,1.23,3.79,2,1.38.88,3.61,1.84,3.71,2.93.12,1.27-1.67,2.71-2.64,4.08l-10.13,2.08-5.85-3.41c-1-3.54-.73-6.17,4-5.69l2.52,2.11.71-1.24-3.25-.84Zm3.62,9.79.7-.9L282.62,156c-.12.27-.42.68-.34.78A15.36,15.36,0,0,0,283.68,158.14Z"/><path class="cls-12" d="M282.9,160.28,293,158.21c0,.83,0,1.66,0,2.49l1,3.58,0,0L287,168.36l-5.25,2-.2-.73L276,174.21l-.6-4.69.81.68Z"/><path class="cls-9" d="M266.61,215.13,266,212.2l3.08-.93,1-.06,1-1.94h.1l1.17-2c.42-.25,1.11-.41,1.22-.76,1.58-5,3.46-3.76,5.49-.32.85,3.9,1,6.9-4.74,6.28-1.59-.17-3.48,2.4-5.24,3.71Z"/><path class="cls-9" d="M235.15,219l8.8.12,1.12,4.24-7,2.84-6-4.91Z"/><path class="cls-12" d="M266.61,215.13l2.41,1.06.59,2.2-3.62,2c-2.56,1-5.39,1.72-5.26,5.43a12.66,12.66,0,0,1-2.66.64C256.84,219.64,263.08,218.41,266.61,215.13Z"/><path class="cls-11" d="M287,168.36l7.06-4.13C293.07,167.87,290.69,169.19,287,168.36Z"/><path class="cls-11" d="M294.07,164.27l-1-3.58,4.53-.32.53,1Z"/><path class="cls-9" d="M266,220.43l3.62-2c.09,1.07.17,2.15.32,4Z"/><path class="cls-12" d="M282.06,203.25l4.16-3Z"/><path class="cls-12" d="M281,204.29l1-1.07Z"/><path class="cls-9" d="M279.07,206.15l.92-.05A4.78,4.78,0,0,1,279.07,206.15Z"/><path class="cls-8" d="M288.17,149.2l-1.21-.29.91-.73Z"/><path class="cls-6" d="M11.24,48.17,11,46.43,13.14,43c2.71,0,3.78.26,2.69-3.77-1-3.86,1.36-8.65,2.25-13l3.08-.11c-.16,2.65-.32,5.29-.52,8.51l5.62-2.77,2.26,2.49c-4.7,4-8.67,8.45-9.48,14.92l-.18.31.15-.34,8-5c.91,3,2.67,1.39,4.25.8l-.36,6.74,1.42,0,2.24-8.09,1.5.15v14.9c1-2.5,1.24-5.49,2.5-6,3.91-1.56,3.3-4.49,3.34-7.42,0-1.72.1-3.44.16-5.16l3.82,3.37c-.19,1.66-1.17,4-.43,4.84,2.3,2.66,1.08,4.32-.65,6.35a26,26,0,0,0-2.3,3.73l5.7,4.85-5.28,2.11-3.3-1.18c-1.32-.89-2.63-1.8-4-2.68-4.13-2.74-6.85-8.42-13.84-4.89C20.23,57.38,16,53.12,13,51,12.2,50.4,11.83,49.14,11.24,48.17Z"/><path class="cls-8" d="M39.63,64.14l3.3,1.17.32,2.51,4,2.36q0,1.59-.07,3.19l2.63,1.94L49,83.75c-3.73,3.75,1.28,5.15,2.07,7.68l3.74,1.92,5.27,11.78-2,3.25c-5.35-2.74-3.55-9-6.25-12.74S45.81,89.33,46,83.73c.17-4.13-2.37-8.39-3.78-12.57C41.47,68.79,40.51,66.48,39.63,64.14Z"/><path class="cls-10" d="M58.11,108.38l2-3.25,3-5.12,1.17,1q-.19,5-.38,10Z"/><path class="cls-1" d="M42.78,176c-.49.43-.77.88-1.08.9s-.73-.34-1.1-.53c.25-.31.46-.81.77-.88S42.12,175.75,42.78,176Z"/><path class="cls-1" d="M51.66,143.2l-1.05-.92c.28-.28.56-.78.86-.8s.67.41,1,.64Z"/><path class="cls-1" d="M59.48,138.44c.11-.25.17-.63.35-.71s.48.18.73.29c-.11.25-.17.64-.34.71S59.73,138.55,59.48,138.44Z"/><path class="cls-1" d="M61.79,162.63c.25.11.65.17.72.35a.55.55,0,0,1-1,.39C61.42,163.2,61.67,162.89,61.79,162.63Z"/><path class="cls-2" d="M185.09,69.18l12-8,1.24,5.23L203,62.08c.17,2,1.16,4.51,3,2.21,3.19-3.94,5.35-8.73,7.94-13.16l-1.43-1-6.46,7-4-2,2-4a8.22,8.22,0,0,1,1.43-1.7c3.26-2.22,3.62-7.5.57-9.29,1.61-.46,3.28-1.44,4.81-1.26,3.5.42,4.87-1.18,4.4-4.7-.25-1.85,1-3.9,1.52-5.86l2.05-.57c1.3,2,3.2,3.82,3.79,6,1.76,6.43,3,13,4.46,19.52.62,2.73,1.46,5.41,2,8.15,1.09,5.38-2.17,11.91-6.72,14.91-1.52,1-2.22,3.23-3.29,4.9l.66,2.77-1.63.14-2.14.12-3.79-.16.93-4.86-1-2.13v0l.52-6.87-5.5,3c-4.6-1.18-8.37-.59-10.85,4.18-.53,1-2.77,1.15-4.22,1.69l-8.88-4a3.9,3.9,0,0,1,.07-.81Z"/><path class="cls-2" d="M246,91.11c.64-.85,1.29-2.44,1.93-2.44,4.25,0,8.49.45,12.73.63,3.91.17,7.82.21,11.73.27,2.11,0,4.22,0,6.33,0l.16,1.29a42.49,42.49,0,0,1-3.77,2.6c-6,3.27-3,9.18-4.2,13.87l-4.47,1.19-3.56-5.35,3.19-2.57-6.48-.63-7.57-3.65Z"/><path class="cls-7" d="M262.92,103.18l3.56,5.35,4.47-1.19c1.56,2.5,3.19,5,4.65,7.51a8.73,8.73,0,0,1,1.29,3.56c.19,2.79.06,5.6.06,8.41a28.25,28.25,0,0,1-4.58-.55c-2.86-.81-5.64-1.88-8.46-2.83-2-.44-4.08-.77-6.07-1.34-2.87-.82-5-2.35-4.92-5.77-.28-5,2.28-7.58,7.11-8.15l-1.89,6.61,3.92-.57v6.58l1.48,0,2.61-5.45,3.43-2.19-.56-.84-3,.94-2.91.13v-1.27a1.84,1.84,0,0,0,.32-.19,5.13,5.13,0,0,0-.29-.6l-1-4,.15-.43-.25.32-1,0,0-3.92Z"/><path class="cls-10" d="M165.1,23.93l2.93.28.34,1.82c1,4.56-.75,10,4.11,13.31h.36l1.17,6.9-3.06,4.14-3.1-1.09-6.42-13.89,1-9.61s0-.3,0-.3Z"/><path class="cls-9" d="M183.15,75.15l8.88,4c-.87,1.12-2.7,2.58-2.44,3.31,1.32,3.83-1.83,4.88-3.64,6.78-3.08.12-5.5-.57-5.75-4.6l4.06,1,.95-6c-5.58,2.71-6.92-.87-7.64-4.56-.56-2.89-.34-5.92-.46-8.9l4-2,4,5-1.87,5.16-2.77.3.24,1.23Z"/><path class="cls-7" d="M246,91.11l6,5.21-5.55,9.37L244,101.76l-1.12.6,2.85,6.53-7.55,3.23-3.91-1.95.89-.87,6-1.77.2-1.65-2.49.24q-.37,0-.75,0c3.4-4.24,4.46-8.32-.77-12L241,91.31Z"/><path class="cls-2" d="M199,40.16c-.89-1.46-2.86-2.39-.81-4.77,1.31-1.52,1.35-4.13,2.26-7.32l-6.77,3.81-.83-1.06c5.42-1.66,3-10,10-11l-2.3,6.7L207,24.2h0l6.25-3.13,4.06,5.1c-5.31.39-8,8.39-15.2,4.24-.45,2.79-5,5.4.53,7.83,0,0-.52,1.32-.8,2Zm12.52-14a4.45,4.45,0,0,0-.67-.48c-.06,0-.36.22-.34.27a5.35,5.35,0,0,0,.39.75Z"/><path class="cls-9" d="M241,91.31l-3.69,2.83-8.61-3.6-4.59-.84c-.69-3.66-2.79-2.88-5-1.59-3.42,2.69-4.9-1.23-7.27-2.13l.09-1.75.27-.07,3.79.16.15,1.57,2-1.69,1.63-.14,1.64,2.69-.32-4.49c3.48-1.78,6.32-3.12,7.72,2.69.45,1.87,4.42,3,6.88,4.24A54.17,54.17,0,0,0,241,91.31Z"/><path class="cls-8" d="M288.11,145.21l-10.26-4.48c1.59-2.23,3.58-5.28.17-8.48l3.22-1.5C287.95,133.89,290.71,139.71,288.11,145.21Z"/><path class="cls-9" d="M199,40.16l2.86.09q.1,1.45.19,2.9l1.61,1.43L206,40.2c3,1.79,2.69,7.07-.57,9.29a8.22,8.22,0,0,0-1.43,1.7c-3.17-1.53-6.12-3.18-5.87-7.49,0-.46-1.38-1-2.13-1.5h0Z"/><path class="cls-7" d="M181.1,64.22l-4,2-2,9-1.86-4.09L172,66l.74-2.49,3,1.92.76-.78L175,61.41l1.07-1.15,2.62-5.84.55-.39Z"/><path class="cls-11" d="M281.24,130.75l-3.22,1.5-4.88-.72L270.28,129l.26-.39-6.63-5.15c2.82,1,5.6,2,8.46,2.83a28.25,28.25,0,0,0,4.58.55Z"/><path class="cls-9" d="M202,55.23l4,2L203,62.08l-4.69,4.35L197,61.2Z"/><path class="cls-2" d="M273,79.1a22.26,22.26,0,0,0-2-1.38c-5.68-3.11-5.68-3.1-2.53-8.26l7.62,7.77Z"/><path class="cls-7" d="M174,46.23l-1.17-6.9L175,41.21l3,7c-.88,2.23,4.7,3.05,1.26,5.83l-.55.39a51.36,51.36,0,0,1-3.84-4.77C174.29,48.71,174.29,47.38,174,46.23Z"/><path class="cls-9" d="M273,79.1l3.09-1.87,6.81-3.7L281,80.14l-2.91,3.15Z"/><path class="cls-2" d="M175,41.21l-2.19-1.88h-.36l-3-12.84c4.65.3,3.54,4.78,5,7.28,1,1.75.48,4.38.64,6.61a2.84,2.84,0,0,1,0,.78Z"/><path class="cls-11" d="M169.46,26.51l3,12.84c-4.87-3.36-3.15-8.75-4.11-13.31Z"/><path class="cls-2" d="M278.07,83.29,281,80.14l3.79,6.21-.65.83Z"/><path class="cls-2" d="M224.29,5.76l-2.07,5.34L220.76,11c-.15-1.22-.62-2.54-.3-3.63C220.63,6.79,222.16,6.61,224.29,5.76Z"/><path class="cls-2" d="M181.52,29.45l4.59-1.29.52,1.72L182,31.35Z"/><path class="cls-2" d="M178,48.2l-3-7,0,0a2.44,2.44,0,0,1,.61-.11l1.37.13h0Z"/><path class="cls-2" d="M282,54.2l-4.47-.25c1.9-3.15,1.94-3.15,4.46.26Z"/><path class="cls-2" d="M189,21.2l1.46,4.5-4.95-2.55,3.49-2Z"/><path class="cls-7" d="M221.06,82.27l.32,4.49-1.64-2.69-.67-2.77Z"/><path class="cls-2" d="M177,41.2l-.2-3.35,1.39.16L177,41.2Z"/><path class="cls-2" d="M182.78,39l-1.45-1.81.61-.61,1.81,1.55Z"/><path class="cls-2" d="M179,34.32c-.57.09-1.17.33-1.31.16a1.52,1.52,0,0,1-.29-1.24,1.18,1.18,0,0,1,1.05-.32C178.7,33.18,178.74,33.71,179,34.32Z"/><path class="cls-2" d="M207,24.2l.62-2.61,1,.5L207,24.2Z"/><path class="cls-2" d="M294.56,95c-.67.36-1,.69-1.4.69-.18,0-.43-.57-.53-.92a1.1,1.1,0,0,1,.72-.41A4.48,4.48,0,0,1,294.56,95Z"/><path class="cls-2" d="M229,12.2l-.95,1.54-.58-.58,1.53-1Z"/><path class="cls-2" d="M188.59,36.95c-.11.25-.17.63-.35.7s-.48-.18-.73-.29c.11-.25.16-.63.34-.7S188.34,36.84,188.59,36.95Z"/><path class="cls-11" d="M168.6,24.39l.56-1.06,2.26-.13Z"/><path class="cls-7" d="M175.66,41.08a2.44,2.44,0,0,0-.61.11,2.83,2.83,0,0,0,0-.78A1,1,0,0,1,175.66,41.08Z"/><path class="cls-9" d="M196,42.2l-.2.35.2-.34Z"/><path class="cls-1" d="M162.48,25.78q-.52,4.8-1,9.6,0,3.85.06,7.71c-5.18,3.77,1.62,8.56-1,13.26-2.13-2.75-4.17-4.49-5.3,0l-.33,1.77.82,5.79-1-.58L153,64a1.25,1.25,0,0,1-.88.09L148,62.35l-4,2c2.23,6.94,7.43,7.25,12.89,7.06l3.84,2.83c1.11,2.63,1.71,5.67,3.43,7.81,3,3.75,1.49,11.94-3.13,14.11l-7.13-7.4c-1.26,2.6-1,8.32-5.31,3.73-3.53-3.78-6.37-2.92-9.62-.17l-7-.09-.95-.12-5-.38-2.09-.51-1.85-.1-15-4-1-1L106,84.3c5-2.4.89-7.13,3.8-10.81a12.31,12.31,0,0,0,7.54-7.74c.77-2.19,4.36-4.48,6.86-4.72,4.11-.4,5.05-2.27,4.91-5.65-.22-5.17,1.48-7,5.94-6.19l2.27,3.2,1.25-1.33L135,49.21l1.23-5.78,5.2.45-4.34-7.22c5-2,9.32-10.74,17.23-1.44l1.6-13.1Zm-2.3,64.14,3.1-.36c-.63-2.08-.79-4.55-2.07-6.09-.76-.91-3.28-.37-4.68-.45Zm-5.81-41.5.57-2.78-6.61-1.86-.64,3.52Zm-5.09,41.92,5.49-3.86a5.14,5.14,0,0,0-4.57,0C149.51,86.85,149.64,88.61,149.28,90.35Zm-16.61-.27.24-.93-9-2.59-.35,1.53Zm23.06-45.74a.83.83,0,0,0-.11-.32s-.19,0-.28.07a.86.86,0,0,0,.11.32S155.63,44.37,155.73,44.34Z"/><path class="cls-9" d="M47.15,73.38q0-1.59.07-3.19l9.79-11,.18-.32-.15.36c-1.44,1-2.83,2.08-4.32,3-3.13,1.92-6.32,3.74-9.48,5.61l-.32-2.51,5.28-2.11-5.7-4.85a26,26,0,0,1,2.3-3.73c1.73-2,3-3.69.65-6.35-.74-.85.24-3.19.43-4.84,1.76-1.65,3.46-3.36,5.29-4.94,2.26-2,4.62-3.8,6.94-5.69L52.36,43.5c7.55-.88,7.79-9.39,14.14-10.45L64.13,31.2,67,29.5l3,6.63C63.9,33.87,63.81,41.24,59.83,43a26.92,26.92,0,0,0,9.09-.24c4-.7,5,1.05,4.18,4.56l-3.19,1.06.31,1.12,4.89-1.2,1.9.93q0,.47,0,.93l0,0-3,3-2.89,14q-.07,1.53-.13,3.07c-1-1.53-2.34-2.93-2.85-4.6C67,62,66.34,58.2,65.19,53.21c-2.18,2.59-4.66,4.2-4.6,5.71.2,4.55-3,6.49-5.54,9Z"/><path class="cls-4" d="M67,29.5l-2.87,1.7-2.35.9L60.16,30.3,59,31.19l-.33,1a1.61,1.61,0,0,0-.59.61c-2.32,1.89-4.68,3.74-6.94,5.69-1.82,1.57-3.53,3.29-5.29,4.94l-3.82-3.37H38.43L36,38.2l7.1-12.09L41.76,25,37,27.91l-7,1.31h0l12.77-7.68,2,6.58L48,20.21l2-2c4.85,3.06,9.71,6.1,14.54,9.2A22.25,22.25,0,0,1,67,29.5Z"/><path class="cls-9" d="M97.21,75.07,104,81.23l.24,1,.83,2.95-.37,2.08-4.33-5.56-4.63,6,8.22,1.53,2.87,4.05c.81,1.58,2.05,3.09,2.32,4.76.37,2.28,0,4.68-.07,7l-1.16.39-2.89-.31c-.33-.75-.46-1.9-1-2.17-7.32-3.57-10.37-10.12-12.93-17.31-1.15-3.23-3.88-5.53-8.12-4.76V77.34c2.5-.25,5-.41,7.48-.79a21.74,21.74,0,0,0,3.62-1.21Z"/><path class="cls-4" d="M97.21,75.07l-3.16.26-3.46-11L84,71.08,80.1,73.15,80,71.21,82.79,67l-.9-.64-4.1,3.07-.31-3.87L75,68.2l-3.91-1,2.89-14,3-3,0,0,3-.94,0,0,.85,0L94,65.4l3.14,9A2.58,2.58,0,0,1,97.21,75.07Z"/><path class="cls-4" d="M77,49.22l-1.9-.93-2-1c.78-3.51-.23-5.26-4.18-4.56a26.92,26.92,0,0,1-9.09.24c4-1.74,4.08-9.11,10.21-6.85,2.47,2.4,5.08,4.67,7.36,7.24,1.18,1.34,1.78,3.19,2.64,4.81v1l0,0Z"/><path class="cls-1" d="M165.1,23.93l-2.62,1.55c.1-1.89.2-3.79.3-5.87l-7.11-1.85.05-1.52h8.39Z"/><path class="cls-5" d="M104.68,87.24l.37-2.08.92-.85.09,1.91,1,1,15,4L104.87,88A2,2,0,0,0,104.68,87.24Z"/><path class="cls-1" d="M160.34,4.41l3.25,8.92C157.14,12.3,160.72,7.63,160.34,4.41Z"/><path class="cls-2" d="M97.12,74.39,94,65.4Z"/><path class="cls-1" d="M144.66,25.42l.63-.53a3.26,3.26,0,0,1,.36.6c0,.06-.2.32-.26.3A4.54,4.54,0,0,1,144.66,25.42Z"/><path class="cls-2" d="M80,49.19v-1l.86,1Z"/><path class="cls-5" d="M104.22,82.21l-.24-1a4.51,4.51,0,0,1,.48.63C104.49,81.92,104.31,82.09,104.22,82.21Z"/><path class="cls-8" d="M204.23,177.16l11.91,3c-4.09-.45-5.39,1.59-4.8,5.51l-9.84,4L197,208.16l-6.52.68L197,198.32l-.81-.88-8.14,4.85c-1.44.14-3.09-.11-4.27.51a49,49,0,0,0-5.85,4.14,12,12,0,0,0-2.06-1.7c-2.69-1.38-3.7-3.12-1.59-5.77,3-1.31,5-3,3-6.59l5.71-5.65C192.39,188.76,198.92,184.26,204.23,177.16Z"/><path class="cls-6" d="M183,187.23l-5.71,5.65-7.15-1.65c-1.53,4.67.34,7,4.18,8.24-2.11,2.65-1.1,4.4,1.59,5.77a12,12,0,0,1,2.06,1.7l-7.22.15-3.16-.88c-5.76-2.92,2.52-3.78.67-6.18-6-2.4-6.42-2.1-8.16,5.72l-.54,3.58c-3.2-.19-6-.56-4.07-5.07.47-1.12-.3-2.76-.49-4.16l3.74-9.17-5.84,2.44-2.23-5.94,6.53-4.12,2,3.79,0,1.06v-.1L160.4,194l6.7-5.81,15.9-1Z"/><path class="cls-8" d="M167.59,206.22l3.16.88c-3.26,3.11-6.69,5.39-11.2,2.24q.28-1.79.54-3.58C162.61,205.68,164.8,210.69,167.59,206.22Z"/><path class="cls-8" d="M152.89,193.38l5.84-2.44L155,200.11l-2.1-4.83Q152.89,194.33,152.89,193.38Z"/><path class="cls-1" d="M105.59,222l-.5.66a4.57,4.57,0,0,1-.52-.63c0-.05.19-.36.24-.35A5,5,0,0,1,105.59,222Z"/><path class="cls-11" d="M123.46,182.39l.45-1.95.83.41-1.28,1.55Z"/><path class="cls-13" d="M244.08,207l-.14,2.61-9,2.62-7.79,1.22-3-2.79,2.21-4.57c2.86-1,5.75-1.93,8.57-3,1.88-.73,5-1.43,5.2-2.61.36-1.72-1.36-3.87-2.6-6.8-2.9,4.47-5.45,4.26-8.18,1.53-.52-.52-1.48-.58-2.24-.86L219,186.14l-2.2-5.8c9.14,2.86,18.28,5.71,27.41,8.6,2,.63,3.94,1.45,5.9,2.19l-.94,1.46a18.33,18.33,0,0,1-2.54,3.56C243,199.23,241.36,202.59,244.08,207Z"/><path class="cls-8" d="M219,186.14l8.15,8.24c.78,3.36,2.3,6.8-.94,9.78L224.34,203c-2-5.09-4.09-10.17-6-15.29C218.15,187.32,218.72,186.66,219,186.14Z"/><path class="cls-6" d="M217,214.17l-4.57,10.31c-1.73-1-4.17-2.22-6.4-3.75-.58-.4-1-2.17-.71-2.52,1.28-1.36,2.75-2.93,4.44-3.42,2.29-.67,4.85-.43,7.29-.58Z"/><path class="cls-9" d="M219.69,212,218,214l-1,.14,0,0Z"/><path class="cls-6" d="M4.14,22,4,19.2c3.31-3.06,6.44-6.38,10.05-9,1-.72,3.46.6,5.26,1-.68,3.29-2.57,4.39-6,5.15S7.19,20,4.14,22Z"/><path class="cls-9" d="M13.14,43,11,46.43,9.1,42.17c.42-1.09,1.2-2.18,1.21-3.28,0-3.59-.2-7.18-.33-10.76l3,1Z"/><path class="cls-7" d="M21.16,26.07l-3.08.11L21,13.1a38.89,38.89,0,0,1,2,5.79,26.57,26.57,0,0,1,0,5.34l0,0Z"/><path class="cls-7" d="M13,29.17l-3-1c.83-3.56,1.73-7.06,7.28-7.65Z"/><path class="cls-6" d="M32,15.2l6.87,1-1,.83-2,.95L23.53,27.08l-.46-2.89,0,0,3.16-7.73,1.94-.93Z"/><path class="cls-4" d="M37.93,17l1-.83c2.23-.08,4.36,0,4.17,3.13L26.23,27.4l.59,1.52,3.22.29h0L26.27,31.8l-5.62,2.78c.2-3.21.36-5.86.52-8.51l1.91-1.88.46,2.89L35.92,18,37.81,19Z"/><path class="cls-9" d="M30,29.21l-3.22-.29-.59-1.52L43.08,19.3l4.93.91-3.15,7.9-2-6.58Z"/><path class="cls-4" d="M32,15.2l-3.89.37,1.3-3.13Z"/><path class="cls-11" d="M226.17,204.16c3.24-3,1.72-6.42.94-9.78.76.28,1.72.34,2.24.86,2.73,2.72,5.28,2.93,8.18-1.53,1.24,2.93,3,5.08,2.6,6.8-.25,1.19-3.32,1.88-5.2,2.61-2.83,1.09-5.71,2-8.57,3Q226.26,205.15,226.17,204.16Z"/><path class="cls-12" d="M227.14,213.49l7.79-1.22L233,217.36l-3.85-.82Z"/><path class="cls-13" d="M159.17,187.12l-2-3.79c0-1.41,0-2.82,0-4.65L154,181.3l-6.8-3.21.71-1,8.3-3.07,1.44,2.86,2.45-2,1.5.79c.2,1.77.89,3.65.5,5.28-.6,2.47-1.95,4.75-3,7.11v.1Z"/><path class="cls-8" d="M148.11,191.38H135.73l.14-2.1,12,1.45Z"/><path class="cls-11" d="M147.92,177.07l-.71,1-3.14.09a6.58,6.58,0,0,0,.09-1L146,175a1.34,1.34,0,0,1,.94-.1Z"/><path class="cls-6" d="M144.15,177.21a6.58,6.58,0,0,1-.09,1l-4-1.93,2.39.9Z"/><path class="cls-11" d="M121.86,178.57l1.23-1.32,1.66,1.09Z"/><path class="cls-13" d="M107.9,105.39l1.16-.39,4.85.49-1,1.33c-3,6.52-2.77,7.27,2.77,9.34l2.66,6.77-.51.51a65.06,65.06,0,0,0-7.76-4.24c-1.42-.56-3.29,0-5,.06L95,112.51l-4.12-2L86.6,99.27l-3.67-11.9L86,87l.25.33L87.37,89l7.4,12c.8,1.94,1.08,4.6,2.53,5.65a15.56,15.56,0,0,0,7.59,2.44C105.79,109.09,106.89,106.67,107.9,105.39Z"/><path class="cls-9" d="M81.33,98.15c-4.26-6.59-5.85,1.34-10.07,1.49L66.08,83.24l5.2.67,5.25,10.8c3.54-1.92,6.6-1.58,8.73,2.2l-.43,2.21Z"/><path class="cls-7" d="M81.33,98.15l3.5,1,.43-2.21,1.34,2.35,4.32,11.25-.3,3c-5,.54-6.27-3-7.35-6.4C82.35,104.19,82,101.13,81.33,98.15Z"/><path class="cls-14" d="M64,82.72l-3.14,5.44-1.7-1.81-3.34-.93a2.37,2.37,0,0,0-.13-.7l-2.84-3.4c-.09-.34-.18-.67-.26-1l6.47-4.18L64,78.28Z"/><path class="cls-15" d="M64,82.72q0-2.22,0-4.44c4.93-1.48,8,1.35,10.93,4.63l-3.69,1-5.2-.67Z"/><path class="cls-7" d="M59.19,86.35l1.7,1.81.27,5.76-6.32-.58L51.1,91.43Z"/><path class="cls-10" d="M148.24,158.38l-4.36-1.16c1.11-1.91,1.81-4.43,5-3.23l4.24.11c3.48.58,6.36-.24,8.21-3.49l5.61-3.19-.91,2.76c-4.78,1-2.43,5.48-3.95,8.08l-5.86-.83L151,158Z"/><path class="cls-6" d="M148.83,154c-3.14-1.2-3.85,1.32-5,3.23-.72-1.08-1.86-2.09-2.08-3.26a71.94,71.94,0,0,1-.68-7.77l2.88-1.05,8.92,4.07.06-.06C149.73,149.17,146.13,148.87,148.83,154Z"/><path class="cls-6" d="M147.92,177.07l-1-2.19,4-4.47,5,1,.26,2.61Z"/><path class="cls-8" d="M156,171.39l-5-1c-.65-1-2-2.29-1.79-2.89.6-1.42,2-2.51,3.06-3.72l3.86,1.38.6,4.56Zm-3.07-3.68-.34.76c.25.1.56.34.74.27s.24-.46.35-.71Z"/><path class="cls-6" d="M156.06,165.18l-3.87-1.38-4-5.42L151,158l4.6,5.16Z"/><path class="cls-7" d="M144.15,177.21l-1.68-.06,1.77-2.21L146,175Z"/><path class="cls-1" d="M66.63,201.56a5.4,5.4,0,0,1,1.09-.94c.17-.08.53.25.8.4a4.32,4.32,0,0,1-.88,1C67.49,202.08,67.1,201.77,66.63,201.56Z"/><path class="cls-1" d="M98,184.2l.34.19L98,184.2Z"/><path class="cls-13" d="M131.08,134.86,128,133.33l-10.15-9.89.5-.51,3.74,1.51,6,3.19Z"/><path class="cls-10" d="M131.08,134.86l-3-7.23c5-3.4,6.84-8.74,6.35-14.12-.52-5.67,1.68-10.2,3.51-15l1.2.47,0-.81-.64-2,.61.1v-1a1,1,0,0,1-.13-.95c3.21-.78,5.61.33,7.29,3.12-1.77,2.83-1,5.05,1.65,6.81.48,3.21,1.29,6.41,1.31,9.62,0,1.61,2.34,4.88-2,4.92l-.43,0h.44l.07,2.44,1.67,5.17,1.08.31L148.93,128l2.08,2.73.88,1.39,2.23,2.18,2.9,3.4,2.52,4.51.67,3.86-.8.83-6.47,2.3L144,145.14Z"/><path class="cls-14" d="M254.14,155l-2,2.2c-1.43.41-3.05-1.06-3.3,2.72-.23,3.4-4.79,1.69-7.54-.17l2.83-4.2c-3.12-2-5.74-4.55-8.84-5.56-4.45-1.45-9.37-1.41-13.88-2.73-6-1.74-12.28-3.47-14.83-10.33q.23-1.39.46-2.79l.36-1.75.63-4.23,4-8.47,7.22-2.18-1.1-6.45,5.8.14,1.37.91a1.84,1.84,0,0,0,.63.13,9.14,9.14,0,0,0,2,1.42c11.31,4.21,22.67,8.32,33.95,12.61,1.24.47,2.09,2,3.12,3L261.8,134c-2.63,5.45-5.38,10.84-7.79,16.39C253.45,151.66,254.06,153.45,254.14,155Z"/><path class="cls-15" d="M206.6,136.93c2.55,6.86,8.84,8.59,14.83,10.33,4.51,1.31,9.43,1.27,13.88,2.73,3.11,1,5.72,3.53,8.84,5.56l-2.83,4.2c2.75,1.86,7.31,3.57,7.54.17.25-3.78,1.87-2.31,3.3-2.72l-1.24,7-1.32,4.86q-.65,2.88-1.29,5.75c-.82,1.31-2.11,2.52-2.38,3.94-.88,4.55-2.35,5.19-6.08,2.34a10.44,10.44,0,0,0-3.26-2c-6.67-1.87-13.51-3.24-20.06-5.46-5.82-2-12.36-1.93-17.44-6l2-14.5,1.49-4.1,1-5.62.43-1.21,1.28-4.79Z"/><path class="cls-13" d="M202.6,149.09l-1.49,4.1H190.76l8.34,14.5c5.08,4.09,11.62,4,17.44,6,6.55,2.22,13.38,3.59,20.06,5.46a10.44,10.44,0,0,1,3.26,2c3.73,2.85,5.2,2.21,6.08-2.34.27-1.41,1.56-2.63,2.38-3.94-.24,3.91-.47,7.82-.76,12.77l-45.69-15,2.36,4.56c-5.3,7.09-11.83,11.6-21.23,10.07h0l-6-12.75c7.53-3.39,9.78-9.69,8.84-17.26a26.14,26.14,0,0,1-2.75-6.11,29.31,29.31,0,0,1-.71-3.86l2.07-.05c.37,4.28,3.9,2.46,6.76,4l-4.44-10.65Z"/><path class="cls-13" d="M265,129.29c-1-1-1.87-2.55-3.12-3-11.28-4.3-22.63-8.4-33.95-12.61a9.11,9.11,0,0,1-2-1.42l8.3-2.06,3.91,1.95,14.75,4.18c-.12,3.42,2.06,5,4.92,5.77,2,.57,4,.9,6.07,1.34l6.63,5.15-.26.39,2.86,2.57-8.89.71Z"/><path class="cls-12" d="M266.93,209.26l-3.72-.12-1.28-3,.62-5.05,2.75-2.12a1.59,1.59,0,0,0,.65.23l1.2.13h.06l1.48-.64-1.41-.9a1,1,0,0,0,0-.65.42.42,0,0,0,.28-.43l2.26-5.62c.67,1.4,1.92,2.81,1.91,4.2a100.12,100.12,0,0,1-1,10.16L267,207.14Z"/><path class="cls-11" d="M265.29,199l-2.75,2.12a36,36,0,0,0-5-2.63,22.67,22.67,0,0,0-4.72-.65c1.34-3.57.31-5.47-3.71-5.26l.94-1.46c2.58-.4,6.32,2,7.06-2.88,1.23.46,3.06.56,3.59,1.44C262.49,192.64,263.8,195.88,265.29,199Z"/><path class="cls-13" d="M271.25,155.2l-5.32,2.28c-1.31-1.5.51-8.79,3.13-11.63l4,2.42Z"/><path class="cls-12" d="M271.25,155.2l1.76-6.93,7,.09,1,2.86,0,0c-4.72-.48-5,2.15-4,5.69l-1.07.31-2.92.43Z"/><path class="cls-15" d="M254.14,155c-.07-1.55-.69-3.33-.13-4.61,2.41-5.54,5.16-10.94,7.79-16.38l.27.24v1.88Z"/><path class="cls-15" d="M265,129.29l-.72,2.94L263,134.28a2.17,2.17,0,0,0-.92,0l-.27-.24Z"/><path class="cls-13" d="M249.61,169.11l1.32-4.86Z"/><path class="cls-13" d="M273.07,157.62l2.92-.43Z"/><path class="cls-13" d="M267.27,197.83l1.41.9-1.48.64Z"/><path class="cls-13" d="M262.07,134.24a2.17,2.17,0,0,1,.92,0l-.91,1.84Q262.08,135.18,262.07,134.24Z"/><path class="cls-13" d="M267.57,196.75a.42.42,0,0,1-.28.43l-.56-.56Z"/><path class="cls-13" d="M267.14,199.37l-1.2-.13Z"/><path class="cls-2" d="M283.31,196a54.71,54.71,0,0,1-6.36-3.27c-.27-.18.71-2.26,1.07-3.34l5.4,5.31Z"/><path class="cls-11" d="M267,207.14l3.66-1.66.44.68-.23,1.92-3-.68A1.58,1.58,0,0,0,267,207.14Z"/><path class="cls-12" d="M270.91,208.09l.23-1.93,1.15,1.11-1.17,2Z"/><path class="cls-10" d="M249.13,192.59c4-.21,5,1.69,3.71,5.26-2.64,1.75-6.6,2.48-5.3,8.44l9.94-4.48,4.44,4.38,1.28,3c-6.82,3.8-14.62,2.95-19.12-2.1-2.72-4.45-1-7.82,2.51-10.89A18.33,18.33,0,0,0,249.13,192.59Z"/><path class="cls-2" d="M267,207.14a1.58,1.58,0,0,1,.88.26l1.12,3.86-3.08.93,1-2.94Z"/><path class="cls-12" d="M281,151.22l3.25.84-.71,1.24L281,151.19Z"/><path class="cls-12" d="M283.68,158.14a15.36,15.36,0,0,1-1.4-1.34c-.08-.09.22-.51.34-.78l1.76,1.22Z"/><path class="cls-7" d="M269,211.27l-1.12-3.86,3,.68c.07.4.14.78.21,1.17H271l-1,1.94Z"/><path class="cls-12" d="M270,211.2l1-1.94Z"/><path class="cls-2" d="M19.05,49.21c.8-6.47,4.77-10.93,9.47-14.92l7.43-1.41L35,38.22l0,0-8,6-8,5Z"/><path class="cls-2" d="M36,38.2l2.42,1.87h3.64c-.06,1.72-.14,3.44-.16,5.16,0,2.93.58,5.86-3.34,7.42-1.26.5-1.53,3.49-2.5,6V43.74l-1.5-.15-2.24,8.09-1.42,0q.18-3.37.36-6.74L35,38.18l0,0Z"/><path class="cls-7" d="M35.95,32.88l-7.43,1.41-2.26-2.48L30,29.22l7-1.31Z"/><path class="cls-9" d="M35,38.18,31.27,45c-1.58.59-3.34,2.19-4.25-.8Z"/><path class="cls-2" d="M19,49.18l-.15.34.18-.31Z"/><path class="cls-11" d="M52.62,80.3l.27,1,2.84,3.41a2.43,2.43,0,0,1,.13.7L49,83.75l.75-8.43-2.63-1.94,7.91-5.43h7.36l6.66,6.91-9.56-1.65c-2.19-3.07-4.35-1-5.2.73S48.69,77.11,52.62,80.3Z"/><path class="cls-13" d="M49,83.75l6.82,1.67,3.33.93L51.1,91.43C50.31,88.89,45.3,87.49,49,83.75Z"/><path class="cls-11" d="M43.25,67.83c3.16-1.86,6.35-3.69,9.48-5.61,1.49-.91,2.88-2,4.32-3l0,0-9.79,11Z"/><path class="cls-7" d="M185.94,89.28c1.82-1.9,5-3,3.65-6.78-.25-.74,1.57-2.19,2.44-3.31,1.45-.54,3.69-.67,4.22-1.69,2.48-4.77,6.25-5.36,10.85-4.18l-.18,2-1.68.79c-1,1.42-2.05,2.8-3,4.27a29,29,0,0,0-1.78,3.5,19.35,19.35,0,0,0-1.36,3.58,11.79,11.79,0,0,0,.05,2.89c1.27,2.41-.41,2.46-2.08,3.14-1.14.47-1.79,2.14-2.66,3.28l2.68,1.47,0,1.9-.28,1-.63,1.38-1.07.33c-1.22-1.73-2.12-3.9-3.75-5.08-2.19-1.58-4.94-2.4-7.45-3.54l1.91-2.18,4.28,1.9.82-1.25L186,89.25Z"/><path class="cls-4" d="M203,62.08,206,57.19l6.46-7,1.43,1c-2.59,4.43-4.74,9.22-7.94,13.16C204.13,66.59,203.14,64.08,203,62.08Z"/><path class="cls-12" d="M206.92,75.31l.18-2,5.5-3-.52,6.87L209,76.33v-.11l-2-1Z"/><path class="cls-7" d="M209,76.33l3.11.83v0l1,2.13-.93,4.86-.26.07-2.44-4.09Z"/><path class="cls-7" d="M183.15,75.15l-2.46.72-.24-1.23,2.77-.3A4,4,0,0,0,183.15,75.15Z"/><path class="cls-7" d="M218.1,84.21l-2,1.69L216,84.33Z"/><path class="cls-12" d="M213.11,79.31l-1-2.13Z"/><path class="cls-12" d="M252.91,116.31l-14.75-4.18,7.55-3.23-2.85-6.53,1.12-.6,2.52,3.93,5.55-9.37,7.57,3.65,1.31,3.28q0,2,0,3.92l-1,1C255.19,108.73,252.64,111.29,252.91,116.31Z"/><path class="cls-9" d="M260.94,103.25,259.63,100l6.49.63-3.19,2.57Z"/><path class="cls-12" d="M266.14,115.29l-2.61,5.45-1.48,0q0-3.29,0-6.58l1.07-.87,2.91-.13Z"/><path class="cls-9" d="M263.12,113.33l-1.07.87-3.92.57,1.89-6.61,1-1,1,0,.11.1,1,4a3.33,3.33,0,0,0,0,.79Z"/><path class="cls-13" d="M266.14,115.29,266,113.2l3-.94.56.84Z"/><path class="cls-9" d="M262,107.15l.25-.32-.15.43Z"/><path class="cls-12" d="M263.12,112.06a3.33,3.33,0,0,1,0-.79,5.09,5.09,0,0,1,.29.6A1.84,1.84,0,0,1,263.12,112.06Z"/><path class="cls-5" d="M155.15,56.4c1.13-4.53,3.17-2.79,5.3,0,2.65-4.7-4.15-9.49,1-13.26l6.36,6.19,3.1,1.09q0,5.56-.07,11.11l-1.78,1.29-5.17-.51-.05,1.21H169l.3,2.57a.63.63,0,0,0-.44.33l-6-.1.05,0c-.63-3.32-2.69-2.92-5-1.94l-1.61.07a.8.8,0,0,1-.68-.49l-.82-5.79H158l.09-1Z"/><path class="cls-8" d="M170.88,61.48q0-5.56.07-11.11L174,46.23c.28,1.15.28,2.48.89,3.42a51.36,51.36,0,0,0,3.84,4.77l-2.62,5.84-2,.84-1.17,1.1Z"/><path class="cls-8" d="M167.84,49.28l-6.36-6.19q0-3.85-.05-7.71Z"/><path class="cls-6" d="M185.81,92.06l-1.91,2.18-1.93,3L180,97.2l0,0c-.1-.88-.63-2.07-.24-2.58,1.81-2.41.39-3-1.64-3.35l-1.05-2.94L175,75.19v0l2-9c.13,3-.1,6,.47,8.9.72,3.69,2.06,7.27,7.64,4.56l-.95,6-4.06-1c.25,4,2.68,4.71,5.75,4.6l0,0Z"/><path class="cls-11" d="M228.71,90.54l8.62,3.6c5.24,3.68,4.17,7.77.77,12h-1.83l-1.35-2-3.72-5.74,2.09-1.62Z"/><path class="cls-12" d="M234.25,110.18l-8.3,2.06a1.87,1.87,0,0,1-.63-.13l2.23-2.93-1.41-3.06.2-1.83,2.89.17c-1.26,5.4,4,2.73,5.66,4.59l.26.27Z"/><path class="cls-12" d="M236.27,106.13h1.83q.37,0,.75,0l2.29,1.41-6,1.77-.26-.27-.25-2.16Z"/><path class="cls-11" d="M241.13,107.54l-2.29-1.41,2.49-.24Z"/><path class="cls-4" d="M211.54,26.14l-.62.54a5.35,5.35,0,0,1-.39-.75s.28-.3.34-.27A4.34,4.34,0,0,1,211.54,26.14Z"/><path class="cls-12" d="M223.94,111.2l-5.8-.14,1.1,6.45L212,119.7l-1.66-2.13c.76-.8,2-1.5,2.18-2.4a56,56,0,0,0,.55-7l-2.88-2.05a5.4,5.4,0,0,1,.91,0l5.06-1.07c1.22-.64,3.49-1.27,3.49-1.93.05-5-.34-10.05-.59-15.08,2.25-1.29,4.35-2.08,5,1.59a24.34,24.34,0,0,0-1.8,2.7c2.88,2.46.87,5.92,1.87,8.7l.33,5.15.31,1.71Z"/><path class="cls-7" d="M219.09,88.11c.25,5,.64,10.05.59,15.08,0,.65-2.27,1.29-3.49,1.93l-8.32-12,2.72-6.81,1.23-.29C214.18,86.89,215.67,90.8,219.09,88.11Z"/><path class="cls-13" d="M224.2,101.11c-1-2.79,1-6.24-1.87-8.7a24.34,24.34,0,0,1,1.8-2.7l4.59.84,4.57,6.2-2.09,1.62,3.72,5.74-1,.92-2.31-1.17-3.36-2.45-1.07.94a1.21,1.21,0,0,1-.28.63l-1-.21-.52-2.43-.43.87A6.33,6.33,0,0,1,224.2,101.11Z"/><path class="cls-12" d="M211.81,86l-1.23.29L207.7,85l-4.77,5.29-3.74,0a11.79,11.79,0,0,1-.05-2.89,19.35,19.35,0,0,1,1.36-3.58,29,29,0,0,1,1.78-3.5c.92-1.47,2-2.85,3-4.27L206.83,82l2.64-1.9,2.44,4.09Q211.86,85.11,211.81,86Z"/><path class="cls-5" d="M173.2,71.13l1.86,4.09v0l-11-.74-2-.89,1.89-4.4,8.13.81Z"/><path class="cls-10" d="M170.88,61.48l2,.73-.19,1.3L172,66l-2.67,0c-.1-.86-.2-1.71-.3-2.56a.79.79,0,0,0,.1-.71Z"/><path class="cls-6" d="M169.3,66,172,66l1.23,5.13L172.1,70l-3.25-3.6A.63.63,0,0,1,169.3,66Z"/><path class="cls-6" d="M172.71,63.51l.19-1.3,1.17-1.1,1,.31,1.47,3.23-.76.78Z"/><path class="cls-9" d="M175,61.41l-1-.31,2-.85Z"/><path class="cls-5" d="M146.21,97.38c-1.68-2.79-4.08-3.91-7.29-3.13q0-.95.05-1.89c3.25-2.75,6.09-3.61,9.62.17,4.28,4.59,4.05-1.13,5.31-3.73L161,96.2l-3.45,1.16a4.25,4.25,0,0,0,3,1.75c4.12.41,8.26.62,12.35,1.22.84.12,1.47,1.62,2.19,2.5L162,115a1.74,1.74,0,0,0-.8,0l-1.89-1,0-1.78c.09-.11.27-.29.25-.31a4.34,4.34,0,0,0-.48-.5l-6.38-5.28C153.18,99.76,150.75,96.47,146.21,97.38Z"/><path class="cls-9" d="M175.08,102.82c-.73-.87-1.36-2.37-2.19-2.49-4.09-.6-8.23-.81-12.35-1.22a4.25,4.25,0,0,1-3-1.75L161,96.2c4.62-2.17,6.15-10.36,3.13-14.11-1.72-2.14-2.32-5.18-3.42-7.81l-.8-2.85c1.79-1.87.9-3.12-.95-4.15l-1.07-2.88c2.3-1,4.36-1.38,5,1.94l-1.14.78,1.08-.82,6,.1L172.1,70,164,69.16l-1.89,4.4,5.77,6.54,2.09,1.34,2.21.51-.82-.77,3-2.45-6.31-1-3.94-3.26,11,.74,2.05,13.11a4.72,4.72,0,0,1-.14.75l-.49,0L169.78,85l-2.29,9.59c5.3,2.94,6.12,2.74,9-2.33l1.66-1c2,.38,3.45.94,1.64,3.35-.38.51.14,1.7.24,2.58l-1.55,1.29,1.57.7.28.22-.32-.18,0-2,1.93.06v0l1,1,.65,5.84H180.1C179.08,101.11,177.42,100.64,175.08,102.82Z"/><path class="cls-14" d="M139,92.36q0,.94-.05,1.89a1,1,0,0,0,.13,1v1l-.61-.1c-1.19.47-2.78.62-3.47,1.48-1.21,1.52-1.47,4-2.88,5.1-1.25,1-4.29,1.64-5.2.87-2.86-2.43-4.37-2.37-7.25-.23-1.94,1.44-2.82,5.76-6.76,3.51l1-1.34c4.2-1.65,5.76-5.36,7.15-9.19L124,93.12q0,1.55.08,3.1l-1,1-.07.1,0-.14,1-1c1.49-1.05,3.11-2.11-.09-3l.2-1,1.87-.35,5,.38.95.12Z"/><path class="cls-10" d="M155.64,64a.79.79,0,0,0,.68.49l.56,3.45.39,2-.07-.29-.14,1.48-.16.38c-5.46.2-10.66-.12-12.89-7.06l4-2,4.13,1.76A1.25,1.25,0,0,0,153,64l1.68-.65Z"/><path class="cls-13" d="M124,93.12l-2.91,3.17c-1.86-.51-3.71-1.1-5.6-1.5-2.87-.6-5.77-1.06-8.65-1.58l-2.87-4.05.93-1.21,17.19,3.22,1.86.1a3.5,3.5,0,0,0,.22.86l-.2,1Z"/><path class="cls-5" d="M160.17,89.93,156.52,83c1.4.09,3.92-.46,4.68.45,1.28,1.54,1.44,4,2.07,6.09Z"/><path class="cls-5" d="M154.37,48.42l-6.68-1.12.64-3.52,6.61,1.86Z"/><path class="cls-5" d="M149.28,90.35c.36-1.74.24-3.49.92-3.91a5.14,5.14,0,0,1,4.57,0Z"/><path class="cls-5" d="M132.67,90.08l-9.16-2,.35-1.53,9,2.59Z"/><path class="cls-5" d="M157.21,69.59l.07.29,2.68,1.54.8,2.85-3.84-2.83.16-.38Z"/><path class="cls-3" d="M135,49.21l3.52,1.86L137.3,52.4,135,49.2Z"/><path class="cls-8" d="M152.12,64.11,148,62.35Z"/><path class="cls-9" d="M155.15,56.4l2.94.75-.09,1h-3.19Z"/><path class="cls-5" d="M124.13,92.13a3.5,3.5,0,0,1-.22-.86l2.09.51Z"/><path class="cls-5" d="M155.73,44.34c-.1,0-.25.1-.28.07a.86.86,0,0,1-.11-.32c.1,0,.25-.1.28-.07A.83.83,0,0,1,155.73,44.34Z"/><path class="cls-3" d="M107,87.2l-1-1Z"/><path class="cls-5" d="M132,92.27l-.95-.12Z"/><path class="cls-5" d="M154.68,63.38,153,64Z"/><path class="cls-6" d="M69.08,74.86l-6.65-6.91H55.06c2.56-2.55,5.74-4.48,5.54-9-.07-1.5,2.42-3.12,4.6-5.71,1.15,5,1.83,8.78,2.94,12.44.51,1.67,1.87,3.08,2.85,4.6l.91,1.13.94,1.41,1.26-1.53L75,68.2l2.45-2.61c.13,1.55.22,2.71.31,3.87l-.22,2.21L80,71.21l.05,1.94-.73,2.75,3.32-.46.26,1.9v3.49c4.24-.76,7,1.54,8.12,4.76,2.56,7.19,5.62,13.74,12.93,17.31.56.27.69,1.43,1,2.17l-10.25-4.15-7.4-12-1.15-1.61L86,87Z"/><path class="cls-2" d="M61.77,32.1l2.35-.9,2.38,1.85c-6.35,1.07-6.59,9.57-14.14,10.45l5.75-10.7a1.6,1.6,0,0,1,.6-.61Z"/><path class="cls-2" d="M75,68.2l-.94,3.06-2.19.12L71,70.25q.06-1.53.13-3.07Z"/><path class="cls-2" d="M73.1,47.31l2,1-4.89,1.2-.31-1.12Z"/><path class="cls-2" d="M77,50.17l-3,3Z"/><path class="cls-2" d="M77,49.22h3l-3,.94Q77,49.69,77,49.22Z"/><path class="cls-11" d="M57.05,59.22l.15-.36-.18.32Z"/><path class="cls-9" d="M35.95,32.88l1.06-5L41.76,25l1.35,1.13L36,38.2l-1,0Z"/><path class="cls-9" d="M61.77,32.1l-3.06.1.33-1,1.12-.89Z"/><path class="cls-2" d="M60.16,30.3,59,31.19Z"/><path class="cls-15" d="M106.82,93.21c2.89.52,5.78,1,8.65,1.58,1.89.4,3.73,1,5.6,1.5-1.39,3.84-3,7.54-7.15,9.19l-4.85-.48c.06-2.35.44-4.75.07-7C108.87,96.3,107.62,94.79,106.82,93.21Z"/><path class="cls-2" d="M82.95,77.34q-.13-.95-.25-1.9L84,71.08l6.55-6.79,3.46,11a21.63,21.63,0,0,1-3.62,1.21C88,76.93,85.44,77.08,82.95,77.34Z"/><path class="cls-10" d="M94.77,100.93,105,105.07l2.89.31c-1,1.28-2.11,3.7-3,3.63a15.56,15.56,0,0,1-7.59-2.44C95.85,105.53,95.57,102.87,94.77,100.93Z"/><path class="cls-2" d="M104.87,88l-.93,1.21-8.22-1.53,4.63-6,4.33,5.56A2,2,0,0,1,104.87,88Z"/><path class="cls-9" d="M80,71.21l-2.47.45.22-2.21,4.1-3.07.9.64Z"/><path class="cls-9" d="M84,71.08l-1.35,4.35-3.33.46.73-2.75Z"/><path class="cls-12" d="M174.32,199.47c-3.84-1.22-5.71-3.56-4.18-8.24l7.15,1.65C179.3,196.43,177.29,198.17,174.32,199.47Z"/><path class="cls-8" d="M177,174.48l6,12.75-15.9,1,.74-3.85C170.4,180.6,172.34,176.26,177,174.48Z"/><path class="cls-9" d="M167.84,184.35l-.74,3.85L160.4,194l-1.29-5.92c1-2.36,2.38-4.65,3-7.12.39-1.62-.29-3.51-.5-5.28l.5-.52Z"/><path class="cls-5" d="M167.59,206.22c-2.78,4.47-5-.54-7.49-.46,1.74-7.82,2.19-8.12,8.16-5.72C170.11,202.44,161.82,203.29,167.59,206.22Z"/><path class="cls-9" d="M159.17,187.12l0,1.06Z"/><path class="cls-2" d="M37.93,17l-.12,2L35.92,18Z"/><path class="cls-12" d="M156,171.39l.7-1.66,2.58-2.35.36.31L160,169l-.73,3.18.91,1.89a5,5,0,0,1,0,.78l-2.45,2L156.21,174Q156.09,172.7,156,171.39Z"/><path class="cls-9" d="M160.1,174.9a4.94,4.94,0,0,0,0-.78l2,.26a2.08,2.08,0,0,1,0,.79l-.5.52Z"/><path class="cls-15" d="M112.88,106.82c3.94,2.25,4.82-2.07,6.76-3.51,2.88-2.14,4.39-2.2,7.25.23.91.77,3.95.13,5.2-.87,1.41-1.13,1.67-3.58,2.88-5.1.69-.87,2.29-1,3.47-1.48l.63,2-1.17.34c-1.83,4.85-4,9.37-3.51,15,.49,5.37-1.34,10.71-6.35,14.12l-6-3.18c5.62-2.57,8.23-9.51,5.12-14.45-1.64-2.61-4-5.63-7.15-1.6-1.81,2.31-2.94,5.16-4.38,7.76C110.12,114.09,109.89,113.34,112.88,106.82Z"/><path class="cls-10" d="M115.65,116.16c1.44-2.61,2.57-5.45,4.38-7.76,3.15-4,5.5-1,7.15,1.6,3.11,4.95.5,11.88-5.12,14.45l-3.74-1.51Z"/><path class="cls-14" d="M71.28,83.91l3.69-1,4.26,1.27,2.62,2.14,1.08,1,3.67,11.9-1.34-2.36c-2.13-3.78-5.19-4.12-8.73-2.2Z"/><path class="cls-10" d="M82.93,87.37l-1.08-1-2.62-2.14L75,82.92C72.06,79.64,69,76.8,64,78.28L59.1,76.12l.42-2.91,9.56,1.65L86,87Z"/><path class="cls-10" d="M86.22,87.37,87.37,89Z"/><path class="cls-15" d="M59.52,73.21l-.42,2.91L52.63,80.3c-3.94-3.19.78-4.5,1.69-6.36S57.33,70.14,59.52,73.21Z"/><path class="cls-15" d="M55.73,84.72l-2.84-3.41Z"/><path class="cls-12" d="M159.4,146.91l.8-.83,3.42-3.13-2-1.88,1.18-3,3.47,3.89c3.67-2.25,3.42-2.2,2.71-6-.37-2-.44-5.32.69-6.1,4-2.77,8.64-4.71,13.55-7.23l.09-1.86,8.3-1,4.5-.19,1.75.27-2,6.54c-4.75.92-10,.7-12.93,5.74l-3.77,3.68-3.95-1.29,1.89,5.58-.23.23-1,5c-2.25-.24-4.51-.46-6.76-.74s-3.24.54-2.27,2.87l-5.61,3.19Z"/><path class="cls-9" d="M162,158.26c1.51-2.6-.83-7.08,3.95-8.08l4,1.75,1.91-.44L168,160.16l2,7.08-4.92,2.89C166.18,165.64,166.93,161.22,162,158.26Z"/><path class="cls-2" d="M168,160.16l3.85-8.67-1.91.44-4-1.75.91-2.76c-1-2.33-.09-3.15,2.27-2.87s4.5.49,6.76.74q0,2.47,0,4.94l-2.28,3.69,2.32,2.81-4.37,1.14C172.92,162.11,170.81,161.63,168,160.16Zm6-9.49-.45-.73c-.17.23-.45.46-.46.69s.26.5.41.74Z"/><path class="cls-6" d="M162,158.26c4.89,3,4.15,7.38,3.07,11.88L162,172.22l-1.87-1.33L160,169l-.36-1.34c.51-1.49,1.32-3,1.41-4.47.07-1.13-.8-2.32-1.25-3.49l-1.54,1.11-1.17.32-.88-3.75Z"/><path class="cls-11" d="M159.4,146.91l1.89,3.7c-1.85,3.25-4.73,4.07-8.21,3.5l-.09-4.95-.06.06Z"/><path class="cls-8" d="M153,149.16l.09,4.95-4.24-.11C146.13,148.87,149.73,149.17,153,149.16Z"/><path class="cls-8" d="M156.18,157.43l.88,3.75-.05,2.06,0-.07-1.44,0L151,158Z"/><path class="cls-7" d="M155.61,163.15l1.44,0,2.2,4.22-2.58,2.35-.6-4.56Z"/><path class="cls-10" d="M152.89,167.71l.75.32c-.11.25-.17.63-.35.71s-.49-.16-.74-.27Z"/><path class="cls-7" d="M183.31,120.77l-.09,1.86c-4.91,2.52-9.52,4.46-13.55,7.23-1.13.78-1.07,4.1-.69,6.1.71,3.83,1,3.78-2.71,6l-3.47-3.89c-1.48-7.67-2.89-9.25-8.7-9.8l-2.28-2.71-2.72-2.32-1.88-2.08-.07-2.44v0c4.36,0,2-3.31,2-4.92,0-3.21-.82-6.41-1.3-9.61l3.15,2.1c.66,2.41.95,5,2.09,7.16s3,4.51,6,1.74l2.14-.17a1.73,1.73,0,0,1,.8,0c2.24,4.7-2.21,2.15-3.47,3l.7,7.39c8.82.05,8.73,0,10.91-8.21.31-1.17,1.87-2,2.85-3v6.6c3,.63,7,3.74,8.63-2.46Z"/><path class="cls-13" d="M154.1,128.3c5.81.55,7.22,2.13,8.7,9.8l-1.19,3-2.09,1.16L157,137.71Z"/><path class="cls-6" d="M151,106.28l-3.15-2.1c-2.69-1.75-3.42-4-1.65-6.81,4.54-.9,7,2.38,6.49,8.77Z"/><path class="cls-11" d="M154.1,128.3l2.9,9.42-2.9-3.4q0-1.17.1-2.35l-2.33.17-.88-1.39L148.93,128l1.05-1.35,1.85-1.08Z"/><path class="cls-11" d="M159.53,142.23l2.09-1.16,2,1.88-3.42,3.13Z"/><path class="cls-6" d="M147.23,121.18l1.88,2.08-.21,3.1Z"/><path class="cls-2" d="M148.9,126.36l.21-3.1,2.72,2.32L150,126.67Z"/><path class="cls-7" d="M151.88,132.14l2.33-.17q-.05,1.17-.1,2.35Z"/><path class="cls-12" d="M148.93,128l2.08,2.73Z"/><path class="cls-13" d="M137.91,98.46l1.17-.34,0,.81Z"/><polygon class="cls-6" points="147.15 118.72 147.16 118.74 146.72 118.74 147.15 118.72"/><path class="cls-13" d="M139.05,96.19v0Z"/><path class="cls-10" d="M183,132.12c2.92-5,8.18-4.81,12.93-5.74,4.71,2.82,7.29-.5,10-3.47l2.16,5.25-.63,4.23-1.34,1.78-.79,3.3L204,142.26l-.43,1.21-1,5.62-15.81-8.51,4.44,10.65c-2.86-1.57-6.39.24-6.76-4-.18-.81-.79-1.94-.47-2.39C187.33,140.24,186.53,136.09,183,132.12Z"/><path class="cls-13" d="M208.06,128.16l-2.16-5.25c.13-2.91.29-5.8,4.46-5.34L212,119.7Z"/><path class="cls-11" d="M223.94,111.2l.91-3.22,2.69,1.21-2.23,2.93Z"/><path class="cls-13" d="M205.29,137.47l.79-3.3.49.05.49-.08q-.23,1.39-.46,2.79Z"/><path class="cls-15" d="M207.06,134.15l-.49.08-.49-.05,1.34-1.78Z"/><path class="cls-10" d="M199.1,167.7l-8.34-14.5h10.35Z"/><path class="cls-13" d="M203.59,143.47l.43-1.21Z"/><path class="cls-12" d="M162,172.22l3.16-2.08,4.92-2.9c1.8,5.39,2.51,5.76,8,3.8a30.83,30.83,0,0,0-2.51-3.53C173.2,165.05,173.8,162,177,161c3.84-1.19,4.8-3.54,3-7.09l-1.1-7.33,3.53.65a29.31,29.31,0,0,0,.71,3.86,26.14,26.14,0,0,0,2.75,6.11c.94,7.57-1.31,13.87-8.84,17.26-4.68,1.78-6.62,6.12-9.18,9.87l-5.74-9.18a2.06,2.06,0,0,0,0-.79Z"/><path class="cls-11" d="M182.4,147.25l-3.53-.65,1.1,7.33-4.07-3.71q0-2.47,0-4.94l1-5,.57.11-.34-.34-1.89-5.58,3.95,1.29,3.77-3.68c3.54,4,4.34,8.12,1,12.7-.33.45.29,1.58.47,2.39Z"/><path class="cls-2" d="M261.92,206.19l-4.44-4.38-9.94,4.48c-1.3-6,2.66-6.69,5.3-8.44a22.69,22.69,0,0,1,4.72.65,36,36,0,0,1,5,2.63Z"/><path class="cls-12" d="M181.65,118.32c-1.67,6.2-5.61,3.08-8.64,2.46,0-2.38,0-4.49,0-6.6q0-.48,0-1c3-.91,4.53-2.53,2.89-5.76l4.19-3.35h3.52L183,98.26l-1-1v0l1.93-3c2.51,1.15,5.25,2,7.44,3.54,1.62,1.17,2.52,3.35,3.75,5.08-.88.36-1.94,1.22-2.61,1-4.65-1.61-7.41.36-9.22,4.45l-2.62,7.92-3.18,3.11,1,1,3-2Z"/><path class="cls-13" d="M183.26,108.3c1.81-4.09,4.57-6.06,9.22-4.45.68.23,1.73-.63,2.61-1l1.07-.33h.46l.38-.27,0,0-.08,2.18a1.18,1.18,0,0,0,.13.79l.67,11c-2.66-1.62-4.26-2.69-5.95-3.59C188.95,111.1,186.09,109.72,183.26,108.3Z"/><path class="cls-2" d="M199.18,90.35l3.74,0,1,8.76a3.29,3.29,0,0,1-.81.38q0-.58,0-1.16l-3.18-.94-2.77.91-2.68-1.47c.87-1.14,1.52-2.81,2.66-3.28C198.77,92.81,200.46,92.76,199.18,90.35Z"/><path class="cls-11" d="M209.47,80.14,206.83,82l-1.58-5.94,1.68-.79.08-.07,2,1v.11Z"/><path class="cls-9" d="M185.81,92.06l.16-2.82,4.93,3.46L190.09,94Z"/><path class="cls-13" d="M197.12,98.25l2.77-.91q.06,1.32.11,2.63l-.16.15-2.76,0Z"/><path class="cls-11" d="M197.08,100.15l2.76,0-.84,2.12-2,0,0,0-.21-1.12Z"/><path class="cls-12" d="M196.8,101.16l.21,1.12-.38.27h-.46Z"/><path class="cls-7" d="M209,76.22l-2-1Z"/><path class="cls-9" d="M169.1,62.77a.79.79,0,0,1-.1.71h-5.12l.05-1.21Z"/><path class="cls-4" d="M156.89,67.9l-.56-3.45,1.61-.06L159,67.27Z"/><path class="cls-8" d="M178.15,91.25l-1.66,1,.15-1.91L177,89a4.67,4.67,0,0,0,.14-.74Z"/><path class="cls-7" d="M233.92,105l1-.92,1.35,2-1.63.74Z"/><path class="cls-11" d="M233.92,105l.71,1.85c.08.73.17,1.45.25,2.17-1.62-1.86-6.91.81-5.66-4.59l2.39-.6Z"/><path class="cls-7" d="M231.61,103.85l-2.39.6-2.88-.17.56-1.31a1.2,1.2,0,0,0,.28-.63l1.07-.94Z"/><path class="cls-11" d="M226.9,103l-.56,1.31c-.07.62-.14,1.23-.21,1.84l-1.6.14-.33-5.15a6.43,6.43,0,0,0,.7.08l1,1.57Z"/><path class="cls-13" d="M224.54,106.26l1.6-.14,1.41,3.06L224.85,108Z"/><path class="cls-11" d="M203.07,99.45a3.36,3.36,0,0,0,.81-.38l.39.29.92,1.82-1.27,1.12c-3.28,3.6-1.29,6.87.35,10.3l3.75-2.47,1,3.25,4-5.19a56,56,0,0,1-.55,7c-.18.91-1.42,1.61-2.18,2.4-4.17-.45-4.33,2.43-4.46,5.34-2.7,3-5.28,6.28-10,3.47l2-6.54c.75-4.21,1.62-8.41,2.09-12.65.06-.55-1.91-1.32-2.94-2a1.18,1.18,0,0,1-.13-.79l2.18-.69C201.95,103.74,202.3,101.4,203.07,99.45Z"/><path class="cls-11" d="M203.88,99.07l-1-8.76L207.7,85l2.89,1.25-2.72,6.81,8.32,12-5.06,1.07-2.19-4,.11.05-.84-1c-.64-2-1.16-4.28-3.94-1.93Z"/><path class="cls-13" d="M213.09,108.19l-4,5.19-1-3.25.05-.08.19-4.08h1.29a.89.89,0,0,1,.67.16Z"/><path class="cls-7" d="M210.21,106.14a.88.88,0,0,0-.67-.16l-.61-3.76,2.19,4A5.37,5.37,0,0,0,210.21,106.14Z"/><path class="cls-10" d="M225.86,102.76l-1-1.57.43-.87Z"/><path class="cls-11" d="M228.25,101.4l-1.07.94Z"/><path class="cls-6" d="M167.85,80.1l-5.77-6.54,2,.89L168,77.72Z"/><path class="cls-6" d="M180.1,104.1l-4.19,3.35L173,113.21q0,.48,0,1c-1,1-2.54,1.84-2.85,3-2.17,8.24-2.09,8.26-10.91,8.21l-.7-7.39c1.26-.86,5.72,1.69,3.47-3l13.05-12.18C177.42,100.64,179.08,101.11,180.1,104.1Z"/><path class="cls-9" d="M151,106.28l1.69-.14,6.38,5.28a2.62,2.62,0,0,0,.24.81q0,.89,0,1.78l-.24,1.17c-3,2.77-4.82.47-6-1.74S151.68,108.69,151,106.28Z"/><path class="cls-6" d="M159.09,115.18l.24-1.17,1.89,1Z"/><path class="cls-6" d="M159.31,112.23a2.62,2.62,0,0,1-.24-.81,4.39,4.39,0,0,1,.48.5S159.4,112.12,159.31,112.23Z"/><path class="cls-1" d="M176.63,90.37l-.15,1.91c-2.88,5.07-3.7,5.28-9,2.33L169.78,85l6.68,4.06C176.52,89.51,176.57,89.94,176.63,90.37Z"/><path class="cls-1" d="M167.85,80.1l.16-2.38,6.31,1-3,2.45-1.39.26Z"/><path class="cls-13" d="M156.89,67.9l2.11-.63c1.84,1,2.74,2.29.95,4.15l-2.68-1.54Z"/><path class="cls-12" d="M180.05,99.18l-1.57-.7L180,97.19l0,0,0,2Z"/><path class="cls-6" d="M169.93,81.44l1.39-.26.82.77Z"/><path class="cls-11" d="M162.87,66.28l-1.08.82,1.14-.78Z"/><path class="cls-6" d="M182,97.22l1,1Z"/><path class="cls-12" d="M180,99.22l.32.18-.28-.22Z"/><path class="cls-6" d="M176.63,90.37c-.06-.43-.11-.86-.17-1.29l.5,0Z"/><path class="cls-15" d="M123.93,93.15c3.2.92,1.58,2,.09,3l0,0q0-1.55-.09-3.1Z"/><path class="cls-15" d="M123,97.19l0,.14.07-.1Z"/><path class="cls-15" d="M124,96.18l-1,1,0,0,1-1Z"/><path class="cls-13" d="M157.21,69.59l-.14,1.48Z"/><path class="cls-9" d="M71.9,71.37l2.19-.12-1.25,1.53Z"/><path class="cls-8" d="M159.24,167.39l-2.2-4.22,0,.07,2.11-.49-.88-1.89,1.54-1.11c.45,1.16,1.32,2.35,1.25,3.49-.09,1.51-.91,3-1.41,4.47Z"/><path class="cls-4" d="M162,172.22l.18,2.16-2-.25-.91-1.89.86-1.34Z"/><path class="cls-9" d="M160.08,170.89l-.86,1.34L160,169Z"/><path class="cls-13" d="M79.22,84.19l2.62,2.14Z"/><path class="cls-10" d="M197,105.19c1,.67,3,1.45,2.94,2-.48,4.24-1.35,8.44-2.09,12.65l-1.76-.27c-1.56-1.29-3.13-2.87-4.5.19l-8.3,1-1.66-2.46-.18.08-.83-2.18,2.62-7.92c2.83,1.42,5.68,2.8,8.48,4.29,1.69.9,3.29,2,5.95,3.59Z"/><path class="cls-11" d="M191.62,119.76c1.37-3.07,2.94-1.48,4.5-.19Z"/><path class="cls-7" d="M175.9,150.23l4.07,3.71c1.79,3.55.83,5.9-3,7.09-3.16,1-3.77,4-1.43,6.49A30.83,30.83,0,0,1,178,171c-5.51,2-6.21,1.59-8-3.8l-2-7.08c2.77,1.46,4.89,1.94,3.54-2.3l4.37-1.14-2.32-2.81Z"/><path class="cls-7" d="M174,150.67l-.51.71c-.15-.25-.41-.5-.41-.74s.3-.46.46-.69Z"/><path class="cls-2" d="M158.22,160.85l.88,1.89-2.11.49.05-2.06Z"/><path class="cls-12" d="M177.16,140.09l.34.34-.57-.11Z"/><path class="cls-7" d="M180.64,116.21l.83,2.18-3,1.95-1-1Z"/><path class="cls-7" d="M173,113.21l2.89-5.77C177.55,110.68,176,112.3,173,113.21Z"/><path class="cls-12" d="M199.07,103.72l-2.18.69.08-2.18,2,0Z"/><path class="cls-7" d="M199.07,103.72l-.07-1.47.84-2.12L200,100l3.06-1.69q0,.58,0,1.16C202.3,101.4,201.95,103.74,199.07,103.72Z"/><path class="cls-11" d="M203.07,98.28,200,100q-.06-1.32-.11-2.64Z"/><path class="cls-13" d="M208,110.13l-3.75,2.47c-1.64-3.44-3.63-6.7-.35-10.3l4.16,7.74Z"/><path class="cls-10" d="M208.93,102.22l.61,3.76h-1.29l-3.07-4.79-.92-1.82c2.78-2.35,3.3-.09,3.94,1.93l.84,1Z"/><path class="cls-12" d="M205.19,101.18l3.07,4.79-.19,4.08-4.16-7.75Z"/><path class="cls-7" d="M209,102.28l-.84-1Z"/></g></svg>