<svg id="Layer_1" data-name="Layer 1" xmlns="http://www.w3.org/2000/svg" viewBox="0 0 311.11 233.1"><defs><style>.cls-1{fill:#6084bc;}.cls-2{fill:#efddc9;}.cls-3{fill:#b4a393;}.cls-4{fill:#746548;}.cls-5{fill:#3b3427;}.cls-6{fill:#e29629;}</style></defs><title>logo</title><g id="oWiWpT"><path class="cls-1" d="M198,233h-2c-.92-1-.52-2.86-2.13-3.45-1.1,1.35.18,2.35.13,3.45q-94.38,0-188.75.1c-3.59,0-4.36-.72-4.35-4.34Q1.11,137.38,1,46c4.68-.06,8.85,1,11,5.65,1.18,2.51,2.92,3.76,5.64,3.74,3.36,3.28,5.62-.21,8.26-1.35,2.12.82,2.91,3.47,5.32,3.9,3.13,1.49,4.3,5.6,8.16,6.1,2.17,4.64,1.9,10.08,4.77,14.5a7.85,7.85,0,0,1,1.22,6.18c-.76,3.24.17,6.06,2.79,7.66,3.53,2.15,3.93,5.39,4.35,8.84A8.65,8.65,0,0,0,57,108c1.74,2.85,4.4,1.92,6.89,1.66,1.79-.07,2.63,1.66,4.11,2.17,2.14,1.37,4.32,2.46,6.91,1.17,4.12,3.58,8.36,6.79,14.34,4.63a2.56,2.56,0,0,0,1.7,2.88c1.44,5,5.35,4.81,9.41,4.53,2.64-.19,4.44-1,4.3-4l.28-1.51,1.4-1.25.54,1.06A2.4,2.4,0,0,0,110,121h-.06c7.8,8.58,17.54,14.93,26.15,22.59,3.2,2.85,5.66,5.32,4.77,9.88-.29,1.51-1.22,3.78,2,3.44a7.33,7.33,0,0,0,4.46,1.23L152,165l.1,2.18-1.68.79c-4.74-.25-1.85,3-2.24,4.82L143,174.25c-2.3-.34-4.61.27-6.84.44-6.06.48-12.23,0-18.21,1.44l-.16-.37c-2-2.34-6.31-.94-7.45-4.64-1.15,1.39-5.18,2.36-3.66,3.33,2.26,1.43,3.09,6.11,7.22,4.25,5,2.27,9.37,6,14.91,7.16,1.17.25,2.6.56,2.79,1.77.34,2.09-1.85,1.33-2.83,2-1.22.8-3.35,1.11-3.23,2.7.15,2.07,2.45,1.64,4,2,7.39,1.92,14.87.78,22.31.67l2.27,4.81c1.57,4.26-1.92,4.92-5,6,15.87,6.2,16.5,6.22,19.23.69-1.31-.59-2.13.58-3.17.9-1.89.58-3.25-.27-4.3-1.64-1.25-1.63-.34-3.17.53-4.6a3.85,3.85,0,0,1,4.48-1.39c2.54.73-1.85,2.6.49,3.91l3.6-1.11,2.46.27.15,0c2.35,3.74,6.35,3.58,8.26,1.06,2.19-2.89,4.34-3,7.14-2.89.46,3.22-2.2,4.77-4,6.51s-2.49,3-1.39,5.72c.85,2.08,0,4.83,0,7.28,0,.23.95.76,1.15.64,5.42-3.27,6.76,1.06,8.8,4.48.61,1,2,3.46,3.35.34.41-.94.55-2,1.89-1.75s1,1.52,1.27,2.41C199.9,229,200,231.17,198,233Zm-65.9-78.4c3.77,0,4.33-2.59,4.75-4.86.3-1.62-1.86-3.49-2.44-2.91-1.76,1.77-5.13,2.11-5.4,4.9C128.9,152.83,129.86,155.54,132.1,154.6Z"/><path class="cls-2" d="M161,1c48.61,0,97.23.06,145.84-.12,3.85,0,4.24,1.09,4.24,4.45q-.15,111.63,0,223.26c0,3.94-1.1,4.53-4.69,4.5-24.47-.17-48.95-.09-73.42-.09.27-2.31.7-4.5,2.58-6.2,2.52-2.28.5-3.17-1.35-4.25-1.24-.73-2.62.67-4.29-1.06,4.19-1.9,7.79-4.2,12.53-2.65,2.47.81,5,2,7.69.86,2.08-.71,1.74,3,2.75,2.11,3.41-2.83,1.89.62,2.35,1.6s.61,2.19,1.77,2.74c.82.92,2.4.85,2.43.08.16-4.55,4-5,6.79-6.73,2.45-1.55,2.57-3.35-.52-4.53-3.74-2,.72-3.85.07-5.79l.37-2.56a2.31,2.31,0,0,1,.9.41c-.12,1.58.07,3.21,1.79,3.65,1.39.36,1.93-1.08,2.33-2.13.89-2.35,2.88-2.22,4.86-2.61,2.66-.52,6.68,1,7-3.89,2.54.48,5.09-3.53,7.4-.51,3.6,4.7,5.14.85,6.8-1.44.95-1.3,1.16-3.06,3.23-3.28a.92.92,0,0,0,.78-1.43,2,2,0,0,0-1.59-.81c-5.65,1.72-2.28-3.1-3.18-4.71-.16-.29,1.95-1.92,3.08-2.84.77-.63,1.23-1.19.23-1.91-.44-.32-.73-1.18-1.55-.65-5.16,3.37-10.11.29-15.09-.58-2.28-.4-2.22-1.88-1.07-3.72,2-3.16-.17-4.18-2.79-4.5a23.37,23.37,0,0,0-4.43.27l.15-2c2.29.4,3.34-.8,3.78-2.87.25-1.18.7-2.43,2.25-2,6.39,1.84,10.61-1.54,14.35-5.94,1-1.18,3.14-3-.8-3.37-1.52-.13-1.93-1.43-1.12-2.57,2.89-4.09.85-5.51-3.07-6.32-1.21-.25-2.27-1.26-3.39-1.93l-.18-1.05L287,145c2.56-5.44,0-10.78-7.15-14.85-5.25-3.18-10.7-5.89-16.77-7.16l-.1-.06a3.17,3.17,0,0,0,.93-4.37c-1.17-1.83.43-2.26,1.13-3.19,1.83-.34,4-1.22,3.2-3.15s-2.19,1.13-3.59.74a5.3,5.3,0,0,0-1.44.12c-1.77.66-3.6,2.8-5.34,1.42-2.27-1.78,1.08-3.23,1.11-5.09,0-2.64,3.64-5.95-1.57-7.48.44-3.17-1.08-5.19-4-5.72-1.81-.32-3.73.27-3.52,2.91-1.59-1.41-5.38,2.3-5.51-2.09-.19-6.67-1.1-7.36-7.5-4.68-1.62.12-4.31.88-4.7.24-2.28-3.77-6-2.29-9.1-3.12-.89-4.2-3.6-2.94-5.7-1.55-2.9,1.92-3.35.61-3.37-1.95l2-1,.2-.35L216,85l-2,1c-1.69.46-3.31.66-3.2-1.83a31.79,31.79,0,0,1,.66-5.26c.63-2.93,1.59-6.7-1.13-8.08-1.84-.93-4.64,1.92-6.3,4.11l.22,1c-3.66,0-.46,3.84-2.65,4.63-2.86,1.17-4.73,3-4.34,6.39-.76,4.65,2.88,2.42,4.71,3a3.56,3.56,0,0,1,.72,3.87c-.72,2.39-3.86.56-4.72,2.71L196,98.12c-2.45,0-3.47-.85-2.07-3.31.87-1.53,1.62-3-1.43-2.3-1.44.33-1.74-1.15-1.45-2,1.66-4.54-2.89-6.08-4.25-9.14,1-1,2.94-.73,3.54-2.41-1.61-2.27-6.15-3.19-6-4.66.54-4.48-3-7-3.78-10.65-.68-3.27-.7-6.76-2.52-9.75-.38-1,3-1.25.44-2.83-2.29-1.44-3.2-4-3.61-6.55-.28-1.73-.64-3.22-2.6-3.67l-.54-1.64c.56-3.65-1.48-6.79-2.47-10-.83-2.72.18-5.36-1.86-8.52C163.82,15.05,162.2,7.9,161,1ZM281.29,72.79c-2.48,2.49-3.77,5.2-6.65,5.87-1.68.39-2.25,1.14-1.17,2.66s2.06,1.9,3.56.39C279.24,79.49,281.38,77.32,281.29,72.79Zm-4.94,47.35c-1.29-3.45-1.29-6.32-4-7.61-.59-.28-1.27.83-1.41,1.72C270.37,117.71,272.66,118.79,276.35,120.13ZM215,35.77c1.24-1,3.44-1.38,3.76-3.76a1.92,1.92,0,0,0-1.46-2.28c-.29,2.36-3.3,2.2-3.91,4.24C213.12,34.94,213.54,35.55,215,35.77ZM213.27,51.7c-2.49,1.49-3,3.71-2.85,6.68C213.24,56.59,213.21,54.12,213.27,51.7Zm5.52,30.54c.09,1.43-.44,2.8,1.48,3.56C220.41,84.24,220.47,83.05,218.79,82.25Z"/><path class="cls-1" d="M16,1H158c1.73,6.16,5.19,11.71,6.36,18.08.3,1.61,1,3.14-.21,4.64-3.1,2.13-4.41,8-3,13.34l.7,2.37.08,1.65c-.41,3.94.74,6.91,4.94,8l.38,1c1.65,3.58,1.53,7.55,2.54,11.27L168,62.61c-2,0-4.21-1.64-6.08.48l-2.58.58a3.64,3.64,0,0,0-3.81,3c-.71-1,0-4-2.79-2-1.71,1.2-3-.82-4.52-.58-.51-2.3-1.83-3.77-4.3-3.69-1.62.05-2.2,1-2.66,2.71-.79,3,1.56,2.95,3,3.86a14.27,14.27,0,0,0,12.46,3.89c1.52,2.53,3.1,4.13,5,.31a4.76,4.76,0,0,1,3.34-2.49c1.94.38,3.89,3.62,5.83,0,5.86,4.57-3.82,8.49.74,13.82-3.45-2.27-5.94-3.13-7.74-5.16-.8-.9-2.1-2.12-3.34-.69-1.08,1.25-.07,2.57.8,3.5,1.55,1.66,3.29,3.15,4.95,4.71-.94.61-1,1.58-1.23,2.56-1.06,4.14-.85,9.35-7.38,9.26a1.58,1.58,0,0,0-.6,2.45c3.06-1.85,6.47-.2,9.6-1,.83,1.94,2.14,2.5,4.32,2.19,2.47-.34,2.85.35,1.84,3.14-1.48,4.09-6.27,3.87-7.74,7-1.65,3.54-3.73,3.69-6.7,2.39-.9-3.64-5.86-3.12-6.84-6.67.58-6.36-1.94-9.83-6.41-8.84-1.59-2.73-3.87-4-7.05-3.24-.48-1.58-1.73-1.62-3.09-1.67-4-.13-8.07-.35-12.1-.53L104,87.71c-.74-3.65-1.06-7.44-3.52-10.52-.11-3-2.42-4.43-4.43-6.06l-.83-2,0-.43-.42-.12C87.81,58.19,80.56,48,71.73,39c-1.54-1.56-2.9-3.07-3.09-5.35a7.11,7.11,0,0,0-4.47-6.09c-4.43-1.38-7.62-4.52-11.5-6.6-2-1.06-3.34-3.6-5.37-4.24C38.12,13.84,29.7,9.42,21.39,4.65,19.48,3.56,16.79,3.74,16,1Z"/><path class="cls-2" d="M100.49,77.2c2.46,3.08,2.78,6.87,3.52,10.52-1.65,2.52.83,3.8,1.68,5.57l3,5.87c-3.41.81-6.62,1.25-7.49-3.49a2.42,2.42,0,0,0-1.33-1.36c-4.58-2.07-7.68-5.33-8.71-10.36-.47-2.3-1.74-3.45-4.14-4.3-3.21-1.13-6.81-2.84-4.2-7.37-1.42-1.34-2.41,1.38-3.17.13-1.35-2.22,2-3.5,1.65-5.74C77,68.94,77,68.94,75.86,66c-1.48.84-1.65,2.35-2,3.8-.29,1.05-.54,2.5-2,2.57S70.2,71,69.6,70c-2.32-3.65-1.12-7.77-1.58-11.67-.28-2.33,1.94-5,.26-6.63-2-1.92-3.86,2.12-6.29,1.3,0-1.34,1.16-1.86,1.89-2.7,1.57-1.81,1.95-4.16.26-5.72S61,45,59.42,45.87c-4,2.21-.43,5.51-1.47,8.08l-1,1a6.37,6.37,0,0,0-2.83,3,16.7,16.7,0,0,1-10.46,8.83c2-2.8,4-4.78,3.83-7.73-2-.74-4.14,1.79-5.34-.42-1-1.92,1.07-3.31,2.1-4.61,1.19-1.51,2.83-3.91,1.88-4.7-2.81-2.33-2.81-6.34-5.93-9,.11,3.88,2.24,7.83-.37,10.13-2.41,2.12-4.42,3.89-4.59,7.31.1-3.76-.78-7.42.38-11,.39-1.19.46-2.54-.88-3-2.08-.7-1.79,1.42-2.31,2.42-1,1.88.25,4.42-1.69,6.06l-1.84-2.08c1.79-3.62,2-7.8,4.82-11.51-5.4,1-7.64,5-10.65,8-1.55,1.5-3,2.55-5.11,2.39l0,0c1.39-7.07,5-12.35,11.72-15.48,2.19-1,6.38-1.19,5.32-4.56-.83-2.64-4,.78-6.08,0,2.91-4.44,9.15-4.06,12-8.71a33.5,33.5,0,0,0-15.61,8.25L29,29c-2.48,1.54-4.93,3.14-7.46,4.59-.84.48-2.2.72-1.89-.91C20.21,29.73,19,26.28,22,24c.24,1.45,0,4.38,2.47,1.87A85.24,85.24,0,0,1,37.28,15.59C27,14.25,27,14.28,23.23,22.56A7,7,0,0,1,22,24c0-2.49,0-5,0-7.47,0-1.08.38-2.71-1.17-2.86S19,15.07,19.08,16.2c.25,4.19-1.64,7.71-3.18,11.39-1.72,4.11-3.32,8.33-.55,12.71.71,1.13-.05,1.93-1.08,2.25a1.59,1.59,0,0,1-2.15-1.46c.09-5.48-2-11.2,1.82-16.31.87-1.15,3.08-2.7,1.09-4.09-1.3-.9-3.07.78-4.11,2.09A18.81,18.81,0,0,0,9.3,25.84c-2.22,4.24-.23,8.46.18,12.66.17,1.75,1.08,3.32-1.61,3.57C6.35,39.57,7,35,1.9,35.94A1.1,1.1,0,0,0,1,36C1,25.17,1.08,14.33.93,3.5.91,1.35,1.34.82,3.5.94,7.66,1.16,11.83,1,16,1c.79,2.74,3.48,2.56,5.39,3.65,8.3,4.77,16.72,9.19,25.91,12.11,2,.64,3.38,3.18,5.37,4.24,3.88,2.08,7.07,5.23,11.5,6.6a7.11,7.11,0,0,1,4.47,6.09C68.83,36,70.2,37.49,71.73,39,80.56,48,87.81,58.19,94.85,68.55a2.8,2.8,0,0,0,.38.56l.83,2c-1.16,2-2.4,4.53-1.09,6.36C96.18,79.17,98.59,77.29,100.49,77.2ZM3.22,20.94c4.21-3.5,7.68-5.34,12-5.46,2.36-.07,2.76-2.64,2.64-4.69C17.79,9,16.25,9,14.89,9.11,10.18,9.6,5.09,14.31,3.22,20.94ZM57,33.83c-4.52.61-10.2,7-9.91,10.74.06.78-.18,1.93.93,1.94A2.42,2.42,0,0,0,50,45.29C51.2,40.89,55,38,57,33.83Zm2.06-2.14,0-.32-.38.14Z"/><path class="cls-3" d="M250.17,219.69c-2.72,1.15-5.22-.05-7.69-.86-4.74-1.55-8.34.76-12.53,2.65,1.66,1.73,3,.33,4.29,1.06,1.85,1.09,3.87,2,1.35,4.25-1.88,1.7-2.31,3.89-2.58,6.2H216c.25-1.16.34-2.55-1-2.76a4.3,4.3,0,0,0-5,2.76H198c2-1.83,1.9-4,1.08-6.31-.31-.89,0-2.14-1.27-2.41s-1.48.81-1.89,1.75c-1.36,3.12-2.74.68-3.35-.34-2-3.42-3.38-7.75-8.8-4.48-.2.12-1.14-.41-1.15-.64,0-2.45.81-5.2,0-7.28-1.1-2.69-.48-3.88,1.39-5.72s4.42-3.29,4-6.51c3-.18,4.42-4.1,8-3.27-.31,2.26-1.91,3.55-3,5.16-1,1.42-3,2.82-2.07,4.7,1.17,2.29,3.3-.26,5,.33-2.08,4.77.54,7.48,4.54,8.73,2.95.92,2.34,2.13,1.34,3.88-1.65,2.87-.44,5.84,0,8.63a3.32,3.32,0,0,0,5.73,1.82c2.9-2.77,2.33-8.37-1.28-10-1.8-.82-2.5-1.78-1.71-3.34,1.53-3,4.27-1.94,6.63-1.43,1.34.29,3.65,1,2.39,2.83-3.21,4.63,1.09,6.8,2.81,9.73.62,1.06,1.66,2.62,3.63,1.27,2.67-1.82,3.45-4.38,3.3-7.33-.08-1.67-.93-2.9-2.91-2.51-1,.2-2.34.44-2.38-.85-.06-1.88,1.67-1,2.66-1.14,1.27-.17,2.79.28,3.36-1.42a1.93,1.93,0,0,0-.75-2.21c-1.23-.92-2.43-.5-3.73.1-1.1.51-2,2.94-3.59.67-.61-.89-2-1.67-1.28-3,1.21-2.21,3-.16,4.47-.39,3.39,1.65,6.78,1.24,10.17,0l4.71-.32c-.83,2.59-.7,3.8,2.79,4.39C241.19,216.86,246.35,216,250.17,219.69Z"/><path class="cls-3" d="M164.15,23.72c1.22-1.5.51-3,.21-4.64C163.19,12.71,159.73,7.16,158,1h3c1.2,6.9,2.82,14.05,6.47,19.7,2,3.16,1,5.79,1.86,8.52,1,3.22,3,6.37,2.47,10-2.71-1.79-3.24-4.43-3.63-7.5S168.45,24.87,164.15,23.72Z"/><path class="cls-4" d="M1.9,35.94c5.06-.94,4.45,3.63,6,6.14-.07.78-.45,2.1-.16,2.27C11.45,46.53,12,52,16.88,53c1.41.29,1,1.42.79,2.36-2.72,0-4.46-1.23-5.64-3.74C9.85,47,5.68,45.94,1,46V41C5.2,40,2.56,37.8,1.9,35.94Z"/><path class="cls-1" d="M210,233a4.3,4.3,0,0,1,5-2.76c1.37.21,1.29,1.6,1,2.76Z"/><path class="cls-3" d="M1.9,35.94C2.56,37.8,5.2,40,1,41V36A1.1,1.1,0,0,1,1.9,35.94Z"/><path class="cls-3" d="M194,233c.06-1.1-1.23-2.1-.13-3.45,1.6.6,1.2,2.48,2.13,3.45Z"/><path class="cls-3" d="M158.43,112.77c3,1.3,5.05,1.15,6.7-2.39,1.47-3.14,6.26-2.91,7.74-7,1-2.79.63-3.49-1.84-3.14-2.18.3-3.49-.26-4.32-2.19,2.58,0,5.16,0,7.74,0,.71,0,1.85.45,1.83-.78S174.59,96.76,174,96a5.16,5.16,0,0,1,1.51-4.46c1.23-1.18.77-2.33-.12-2.77-2.36-1.17-4.25-3.51-7.28-3.12l-1.82-.79c-1.66-1.56-3.4-3-4.95-4.71-.87-.93-1.88-2.25-.8-3.5,1.23-1.43,2.54-.22,3.34.69,1.8,2,4.29,2.89,7.74,5.16-4.56-5.33,5.12-9.24-.74-13.81-.92-.84-3-.44-2.74-2.57,3.35.56,2.68-2.52,3.69-4.08l1.22-1.05a1.62,1.62,0,0,0,1.85-.91l2.22-5.47.95-.64c1.82,3,1.84,6.47,2.52,9.75.76,3.69,4.32,6.18,3.78,10.65-.18,1.46,4.37,2.38,6,4.66-.6,1.69-2.52,1.39-3.54,2.41,1.37,3.06,5.91,4.61,4.25,9.14-.3.82,0,2.3,1.45,2,3.05-.7,2.3.77,1.43,2.3-1.4,2.46-.38,3.31,2.07,3.31.29.77-.55,2.52.95,2.16,1.83-.44,2.74-1.91,1-3.7.86-2.15,4-.31,4.72-2.71,1.31.7,2.63,1.71,3.38-.66.87-2.76,3.21-5.44.4-8.67C204.54,86.32,205.41,90,202,90c-1.84-.59-5.47,1.63-4.71-3,1.95,1.48,3.21-.38,4.73-1l.28.21L202,86l-.42-5.39c2.19-.79-1-4.68,2.65-4.63,1.14.52,1,1.57,1,2.54s-.68,2.37.82,3c.81.35,1.23-.25,1.45-.87.43-1.25.95-2.69-.14-3.72A16.83,16.83,0,0,0,204,75c1.66-2.19,4.47-5,6.3-4.11,2.73,1.38,1.76,5.14,1.13,8.08a31.79,31.79,0,0,0-.66,5.26c-.11,2.5,1.51,2.3,3.2,1.83l0,0c0,2.55.46,3.86,3.37,1.95,2.11-1.39,4.82-2.65,5.7,1.55-1.61.5-2.83,1.46-1.82,3.18,3.53,6,1.66,12.2,1,18.37l-1.92-1.39c.18-1.56-1.2-2.25-1.85-3.35s-.89-2.67-2.6-2.49c-.44,0-1.07.83-1.15,1.34-.25,1.66-.38,3.4,1.91,3.85-.06,3,0,6,3.67,9-4.3-.93-6.67.85-9.36,1.32-1.24-1.51-2.39-3.21.21-4.3,1.68-.7,1.28-1.85,1.65-3.06,1.13-3.64-2.75-4.42-3.54-6.88l-3-7.12,5.95,3.62c-1-3.18-2.27-4.94-4.55-5.62-1.26-.38-1.56.82-1.6,1.88-3.84-.62-2.4,2-2.36,3.81-2.91,0-1,5.38-4.83,4.29a11,11,0,0,0-7.73-2.05c-.68-.75-1.36-1.4-2.19-.16l-.17.08c-1.56-.75-3.23-1.91-3.88,1l-.08.1a5,5,0,0,0-3.73,2.8c-.85,1.7.82,1.1,1.57,1.3a24.21,24.21,0,0,0-2,2.73c-2,3.54-.63,7,2.29,8.48,2.07,1.08,5.88,1.07,6.22-3.52.09-1.27,1.47-.63,2.2.14.21,1.59,1.4,1.85,2.69,2l.14.14.31.84.45-.56,1.9.3c2.55,3.12.14,4.86-1.86,6.71-2.26-.72-4.56,1.95-6.8-.07-3.09,1.37-8,.11-8.07,5.87,0,1.7.89,5.77-3.75,3.27-.94-.51-1.85,2.52-1.37,2.78,2.84,1.55,3.06,6.26,7.28,6L183,147c-1.34,0-1.07.76-1.37,1.79-1.45,5.06,4.32,7.92,3.47,12.86-.58,3.37-1.65,7-3.79,8.83-2.47,2.15-5.91,3.71-8.44,5.89-3,2.6-6.48,5.63-5.67,10.66,4.2-1.29,8.37.93,12.54-.56,1.21-.43,2.38,1.69,1.24,2.81-3.6,3.52-4.06,9.72-9.78,11.38-.94.27-1.12,1.14-1.31,2l-3.6,1.11c-2.34-1.3,2.06-3.18-.49-3.91a3.85,3.85,0,0,0-4.48,1.39c-.87,1.43-1.78,3-.53,4.6,1.05,1.37,2.41,2.23,4.3,1.64,1-.32,1.86-1.49,3.17-.9-2.73,5.53-3.37,5.51-19.23-.69,3.1-1.12,6.58-1.78,5-6,1.5-1.41-.31-4.43,2.72-5.26,1-.27.14-1.83-.15-2.59-.44-1.13-1.28-.3-2,.07-.87.46-1.79.83-2.68,1.23-2.86-4.58-2.46-7.8,3.59-8.76.26,0,.41-.84.61-1.29l3.26,4.24a16.07,16.07,0,0,0,1.25-10.58c-1-3.43-3-.44-4.45-.92-.19-.06-.27-.86-.33-.85-4.09.64-8.18,1.33-12.27,2l.45,1.89c.06,1.32-.37,2-1.89,2.12-3.33.31-6.45.07-9.11-2.22,0-1.2.52-1.35,1.78-1.46,2.95-.25,6.18-.2,8.13-3.18l5.19-1.44c3.13.66,5-.3,4.94-3.8l.38-2a18.66,18.66,0,0,0,3.85-.6c2.28-.85,2.72-2.82,2.36-5-.16-1-.46-2.06-1.8-1.91-2.57.28-2.57.32-2.88-2.28,3.87,1,5.23-1.87,6.82-4.4,2.28,1.13,4.83,1.85,4.39,5.42-.19,1.58,1.44,2.63,3,2.65s2-.79,1.47-2.6c-.45-1.47,1.11-1.09,2-.86s1.66.58,2.06-.49-.17-1.58-1-1.93c-1.11-.46-.68-1.18-.8-2.1-.35-2.66.68-4.9,1.7-7.6-2.57.29-4.43.82-6.5-.7-1.59-1.17-3.47-.19-2.36,2.5a2.43,2.43,0,0,0-2.23.6c-5.48,4.74-10.83,9.85-19.14,7.56-.37-.1-1.09,1.05-1.64,1.62-3.2.34-2.28-1.93-2-3.44.89-4.57-1.57-7-4.77-9.88-8.61-7.66-18.35-14-26.15-22.59h1.95l4.84,2.31c4.42,3.56,7.87,8.27,13,11,6.67,5.27,13,11.13,21.37,13.69-.61,1-1.64.91-2.6,1.09a1.83,1.83,0,0,0-1.56,2.14,2.61,2.61,0,0,0,1.92,2.57c.92.26,2.65.57,2.66-.2,0-2.75,3.54-2.82,3.65-5.3,3.32-.93,5-2.72,3.38-6.31,4.28-.27,2.1-4.07,2.71-6a5.26,5.26,0,0,0-3.25-6c-1.87-.61-3.74-.21-2.93,2.71.43,1.57.62,3.21.92,4.82-2.86-1-3.48-4.33-6-5.67l0-2.91c1,.37,2.09,1.66,2.77-.17a1.69,1.69,0,0,0-1.7-2.37c-1.91,0-.94,1.61-1,2.6l-2-.08-.89-3a1.68,1.68,0,0,0,.62-2.07c-1.34-2.58-3.49-5.08-.05-7.77,1.14-.89.84-2.37.28-3.54-1.79-3.74-.49-8.36-3.46-11.8-1-1.18-.21-2.46.63-3.54,4.47-1,7,2.48,6.41,8.83-2,3.5-.27,6.4,2,8.72C156.3,117.67,156.65,113.17,158.43,112.77Z"/><path class="cls-4" d="M169.93,202.6c.19-.82.37-1.68,1.31-2,5.72-1.66,6.18-7.87,9.78-11.38,1.14-1.11,0-3.24-1.24-2.81-4.17,1.49-8.34-.73-12.54.56-.81-5,2.65-8.06,5.67-10.66,2.53-2.18,6-3.75,8.44-5.89,2.14-1.85,3.2-5.46,3.79-8.83.86-4.94-4.92-7.8-3.47-12.86.3-1,0-1.81,1.37-1.79.85,4,4.2,2.56,6.65,3.64,0-4-4.14-6.34-2.9-10.7,2.56,2,4.73,3.67,6.9,5.37a15.83,15.83,0,0,0,7.9,3.76,4.22,4.22,0,0,1-1.37,3.92c-1.8,0-3.6,0-5.4,0-4.1-.13-4.64,1.8-2.49,4.73a24.75,24.75,0,0,1,3.48,7.5c.53,1.71.93,3.58,3.23,3.82h0c1,5.79,3.74,8.13,10.35,9,2,.26,4.35-.21,5.75,2-2.87-.72-4.71.54-5,3.3-.26,3-2,3.45-4.34,3.53-.76-1.11-.91-3-3-2.52-2.67.61-1.4,2.8-1.68,4.36-1.93.57-2.52,1.89-2.32,3.8A27,27,0,0,1,195.8,208c-1.66-.59-3.79,2-5-.33-1-1.88,1.09-3.27,2.07-4.7,1.1-1.61,2.7-2.9,3-5.16-3.57-.84-5,3.09-8,3.27-2.81-.11-5,0-7.14,2.89-1.92,2.53-5.91,2.69-8.26-1.06,0,0,0-.36,0-.36l-.12.33Z"/><path class="cls-3" d="M62,53c2.43.83,4.32-3.22,6.29-1.3C70,53.37,67.74,56,68,58.35c.47,3.9-.73,8,1.58,11.67.6.94.85,2.42,2.26,2.35s1.66-1.51,2-2.57c.4-1.45.56-3,2-3.8,1.15,2.94,1.15,2.94,5.41.67.37,2.24-3,3.52-1.65,5.74.75,1.24,1.75-1.47,3.17-.13-2.62,4.53,1,6.24,4.2,7.37,2.4.84,3.66,2,4.14,4.3,1,5,4.14,8.29,8.71,10.36a2.42,2.42,0,0,1,1.33,1.36c.88,4.74,4.09,4.3,7.49,3.49,1.48,1.54.74,3.25.34,4.93l.06-.09-1.06.86-1.14.39c-5.15.74-9.12-2.16-13.33-4.31C91.4,95.82,88.11,91.41,85,86.87l-3.32-3.39c-4.49-3-9.87-4.5-13.59-8.67a20.4,20.4,0,0,0-6.58-8.52c-2.36-1.88-.68,2.9-2.81,2.45-.16,0-.36,0-.49,0-3.59-2-5.26,1.49-7.74,2.67-1.95.92-4.88,5.1-4.78-1.36,0-.35-.58-1.05-.83-1-3.67.36-3.69-3.29-5.51-4.93-3.87-.5-5-4.61-8.16-6.1l-.48-5.72c1.94-1.65.71-4.18,1.69-6.06.52-1,.23-3.11,2.31-2.42,1.34.45,1.27,1.79.88,3-1.16,3.58-.27,7.24-.38,11,.16-3.42,2.18-5.18,4.59-7.31,2.61-2.3.48-6.25.37-10.13,3.12,2.7,3.12,6.71,5.93,9,.95.79-.69,3.19-1.88,4.7-1,1.3-3.15,2.69-2.1,4.61,1.2,2.21,3.32-.32,5.34.42.21,3-1.82,4.94-3.83,7.73A16.7,16.7,0,0,0,54.15,58,6.37,6.37,0,0,1,57,55L57,55c.2,1.28.85,2.14,2.24,1.89C60.92,56.64,61.1,55.35,61,54l0,0,1-1Z"/><path class="cls-3" d="M104.95,119.48l-.28,1.51c-2.08,3.14-4.94,2.15-7.56,1.17-2-.76-3.93-1.73-6.15-1.69a2.57,2.57,0,0,1-1.7-2.88c0-.45.22-1.23.06-1.3-5-2.48-10-4.89-15.08-7.32-.22-1.2-.14-2.82-2.14-1.53-3-2.11-4.92-5.65-8.78-6.59-.79-.7-1.61-2.93-2.29.1-.33,1.46,1.23,4-2,4-4-3.87-2.25-11.13-9.38-13.75,3.12-.67,5-1.34,6.76-2.68,3-2.3,1.76-2.93-.92-3.44L54,83,54,83a3.25,3.25,0,0,0-2.06-2.52h0c1.5-1.57,4-1.93,5.07-4,1.66,2.48,4.69,3.67,6.08,6.42l2.27.05c1.68,4.5,4.76,8.51,4.7,13.64,0,.9-.28,2.24.86,2.58,1.32.39,2.06-.83,2.59-1.8a14.08,14.08,0,0,0,.88-2.8c4.64-2.67,8.22-.92,11.35,2.72.08,3.76,1.8,7.15,2.5,10.77,1.54,3.15,2.31,7.52,7.58,4.8C99.82,113.77,101.59,117.73,104.95,119.48Z"/><path class="cls-3" d="M17.67,55.39c.17-.93.63-2.07-.79-2.36-4.86-1-5.43-6.5-9.18-8.69-.29-.17.09-1.49.16-2.27,2.69-.26,1.78-1.83,1.61-3.57-.41-4.2-2.4-8.42-.18-12.66a18.81,18.81,0,0,1,1.62-3.06c1-1.31,2.81-3,4.11-2.09,2,1.38-.22,2.94-1.09,4.09-3.87,5.11-1.74,10.83-1.82,16.31a1.59,1.59,0,0,0,2.15,1.46c1-.31,1.8-1.11,1.08-2.25-2.77-4.38-1.17-8.6.55-12.71,1.54-3.68,3.43-7.2,3.18-11.39-.07-1.13.21-2.67,1.7-2.52s1.14,1.79,1.17,2.86c.07,2.49,0,5,0,7.47l0,0c-3,2.29-1.8,5.74-2.35,8.68-.31,1.64,1.05,1.4,1.89.91,2.53-1.46,5-3.05,7.46-4.59l0,0c2.13.73,5.25-2.69,6.08,0,1.06,3.37-3.13,3.54-5.32,4.56C23.06,36.66,19.41,41.94,18,49l-.27.26L18,49c2.16.16,3.56-.89,5.11-2.39,3-2.92,5.26-7,10.65-8-2.81,3.71-3,7.89-4.82,11.51l-3,3.9C23.29,55.18,21,58.67,17.67,55.39Z"/><path class="cls-5" d="M133.11,178.89c2.66,2.29,5.78,2.53,9.11,2.22,1.51-.14,1.95-.8,1.89-2.12,2.29-.36,5.92-1.14,6.6.28,2.52,5.27,3.41-1,5.49-.21v4.15c-.2.45-.34,1.25-.61,1.29-6.05,1-6.45,4.18-3.59,8.76l-.19,1.75c-7.45.11-14.93,1.25-22.31-.67-1.5-.39-3.8,0-4-2-.12-1.6,2-1.9,3.23-2.7,1-.64,3.17.12,2.83-2-.19-1.2-1.63-1.52-2.79-1.77-5.54-1.2-9.89-4.89-14.91-7.16-.33-3.12,1.89-2.89,3.89-2.94l.16.37C122.65,179,127.75,179.68,133.11,178.89Zm.49,11.26c3.73,2.08,6.54,1.87,10.21,1.48C140.62,188.7,137.88,188.53,133.6,190.15Zm13.73.57a3.75,3.75,0,0,0-.69-.32c-.07,0-.29.23-.27.29a3,3,0,0,0,.35.59Z"/><path class="cls-4" d="M51.94,80.52h0C51.64,82.18,52.3,83,54,83L54,83a1.63,1.63,0,0,0,1.51,2.07c2.67.51,3.92,1.14.92,3.44-1.76,1.35-3.63,2-6.76,2.68,7.12,2.61,5.41,9.88,9.38,13.75-.56,1.08-1.94,1.62-2,3a8.65,8.65,0,0,1-4.48-6.73c-.42-3.45-.82-6.69-4.35-8.84-2.62-1.6-3.56-4.42-2.79-7.66a7.85,7.85,0,0,0-1.22-6.18c-2.88-4.42-2.6-9.86-4.77-14.5,1.82,1.65,1.84,5.29,5.51,4.94.25,0,.83.67.83,1-.09,6.46,2.84,2.28,4.78,1.36,2.48-1.18,4.15-4.69,7.74-2.67.13.07.33,0,.49,0,2.13.45.44-4.32,2.81-2.45a20.4,20.4,0,0,1,6.58,8.52c-3,.95-5.61-.51-8.41-1.57a5.35,5.35,0,0,0,2.25,4c1.57,1.66,3.63,3.23,1.11,5.69C61.7,80.2,58.67,79,57,76.53c.24-2-.93-2.63-2.68-2.68-2.66-.09-2.91,2.47-4,3.91C49.41,78.93,50.15,80.31,51.94,80.52Z"/><path class="cls-4" d="M88.25,108.1c-.7-3.62-2.42-7-2.5-10.77.87-4.12-2.52-6.7-3.65-10.1L85,86.87c3.07,4.54,6.36,8.95,8.49,14.06.86,1.93,1.35,4.18,2.68,5.71,1.91,2.2,5,2.26,7.69,2.39,2.32.11,2.85-1.83,3-3.79l1.14-.39,1.06-.86-.06.09c2.11.26,3.89.31,2.24,3.46-1.08,2.05-.94,4.74-1.35,7.15-1.75.61-3.13,1.6-3.54,3.55l-1.4,1.25c-3.36-1.76-5.13-5.72-9.12-6.58C93.2,111.46,92.57,106.87,88.25,108.1Z"/><path class="cls-4" d="M133.11,178.89c-5.36.8-10.46.16-15.14-2.76,6-1.49,12.14-1,18.21-1.44,2.23-.18,4.54-.78,6.84-.44-1.94,3-5.18,2.93-8.13,3.18C133.63,177.53,133.14,177.69,133.11,178.89Z"/><path class="cls-5" d="M161.86,152.86c-1.59,2.53-2.95,5.41-6.81,4.4-2.05-.3-4.13-.84-6.05.49l-1.69.43a7.33,7.33,0,0,1-4.47-1.23c.55-.57,1.27-1.73,1.64-1.63,8.31,2.29,13.66-2.82,19.14-7.56a2.43,2.43,0,0,1,2.23-.6C166.14,150.19,162.69,150.6,161.86,152.86Z"/><path class="cls-4" d="M74.24,109c5,2.42,10.08,4.83,15.08,7.31.16.08,0,.86-.06,1.3-6,2.15-10.21-1.06-14.33-4.64C74.32,111.7,73.55,110.46,74.24,109Z"/><path class="cls-4" d="M63.32,100.86c3.87.94,5.79,4.48,8.78,6.59.39,3.09-3.34,2.31-4.08,4.34-1.48-.51-2.32-2.24-4.11-2.17C64.36,106.65,62.41,103.85,63.32,100.86Z"/><path class="cls-4" d="M149,157.75c1.92-1.33,4-.79,6.05-.49.31,2.6.31,2.56,2.88,2.28,1.35-.15,1.65,1,1.8,1.91.36,2.17-.09,4.14-2.36,5a18.65,18.65,0,0,1-3.85.6l-1.39.17L152,165c2.39.74,4.12-.9,2.82-2.42C153.32,160.8,152.47,157.43,149,157.75Z"/><path class="cls-3" d="M117.81,175.76c-2,.05-4.22-.18-3.89,2.94-4.13,1.86-5-2.83-7.22-4.26-1.52-1,2.51-1.94,3.66-3.33C111.5,174.82,115.82,173.42,117.81,175.76Z"/><path class="cls-3" d="M132.1,154.6c-2.24.95-3.2-1.77-3.09-2.87.27-2.79,3.64-3.13,5.4-4.9.58-.58,2.74,1.29,2.44,2.91C136.43,152,135.87,154.58,132.1,154.6Z"/><path class="cls-5" d="M63.32,100.86c-.91,3,1,5.79.59,8.76-2.49.27-5.15,1.2-6.89-1.66.05-1.41,1.43-2,2-3,3.24,0,1.68-2.5,2-4C61.71,97.92,62.53,100.16,63.32,100.86Z"/><path class="cls-4" d="M91,120.47c2.22,0,4.13.93,6.15,1.69,2.62,1,5.47,2,7.56-1.17.14,3-1.66,3.82-4.3,4C96.31,125.28,92.4,125.52,91,120.47Z"/><path class="cls-3" d="M149,157.75c3.47-.32,4.32,3.06,5.85,4.85,1.3,1.52-.43,3.16-2.82,2.42l-4.72-6.84Z"/><path class="cls-5" d="M68,111.78c.74-2,4.47-1.25,4.08-4.34,2-1.29,1.92.33,2.14,1.53-.69,1.49.07,2.72.69,4C72.34,114.25,70.16,113.15,68,111.78Z"/><path class="cls-4" d="M151.82,195l.19-1.75c.9-.41,1.81-.78,2.68-1.23.69-.36,1.53-1.2,2-.07.29.76,1.14,2.32.15,2.59-3,.84-1.22,3.86-2.72,5.26Z"/><path class="cls-4" d="M25.93,54l3-3.9,1.84,2.08q.24,2.86.48,5.72C28.83,57.51,28,54.87,25.93,54Z"/><path class="cls-5" d="M106.35,118.23c.41-1.95,1.79-2.94,3.54-3.54a1.57,1.57,0,0,1,.39.55l1.59,5.78H110c-.57-1.4-1.47-2.23-3.1-1.75Z"/><path class="cls-4" d="M153.15,169c.08,3.5-1.8,4.46-4.94,3.8.39-1.77-2.5-5.07,2.23-4.82C150.13,171.55,152.16,168.9,153.15,169Z"/><path class="cls-5" d="M153.15,169c-1-.11-3,2.54-2.7-1l1.69-.79,1.39-.17Z"/><path class="cls-3" d="M106.89,119.3c1.63-.48,2.53.35,3.1,1.75A2.4,2.4,0,0,1,106.89,119.3Z"/><path class="cls-3" d="M172.39,202.87l.12-.33s0,.36,0,.36Z"/><path class="cls-5" d="M215.13,179.9c-1.4-2.16-3.7-1.69-5.75-2-6.61-.84-9.31-3.19-10.35-9,3.81,2,8.17,2,12.18,3.32,6.61,2.14,13.16,4.45,19.85,6.29,3.09.85,6.29.38,9,3.09,2.17,2.14,4.73,1.52,4.78-2.43a6.05,6.05,0,0,1,.45-2.87c4.21-7.09,4.64-15.47,8.05-22.94,2.66-5.82,4.78-12,7.64-17.77.47-.07.62-.3.34-.72l1.89-3.1c2.89-.84,6.26,3.31,8.83-.85l3.08-.3c.11.62,0,1.62.36,1.79,3.9,2,3,4.42,1,7.19A6.41,6.41,0,0,0,276,142h0a7.34,7.34,0,0,0-2.84,5.23q-.18.3-.38.59c-1.46.56-2.35,0-3.27-1.23-1.5-2.1-3.36,0-3.21.73.66,3-1.26,4.81-2.63,6.91a2,2,0,0,0,.25,2.7c.95,1,1.77.48,2.49-.29,1.12-1.18,2.27-2,3.78-.6.2.94,1,1,1.74,1.28,1.16.94,2.15.49,3.09-.39,5,1.62,6.93,8.34,2.61,10.46-3.83,1.89-2.65,4.07-2.65,6.58l-.15,2c-1.3,0-2.77-.16-3.13,1.6a136.23,136.23,0,0,1-5.18,19.17l-.8-.21.76.3a1,1,0,0,1-.15.75l0,1.7-.2,0-1.3-.2-4.53-5.31a29.75,29.75,0,0,0-.15-3.43,2.75,2.75,0,0,0-3-2.59c-2.72.14-1,2.16-1.3,3.32l-1.42.17a67.93,67.93,0,0,1-11.93-2.69c-8.8-3.21-17.88-5.68-26.85-8.45A.48.48,0,0,1,215.13,179.9Zm48.32-4.74,1,.34,1.24-5.23-1-.2Zm.09,2.34c-.85,1.76-.87,3.1.7,4a1.28,1.28,0,0,0,1.19-.24C266.12,179.62,265.22,178.59,263.54,177.5Z"/><path class="cls-3" d="M260.28,193.79l4.53,5.3c.36.54.74.93,1.3.2l.2,0c.67.1,1.38-.08,1.39-.75,0-.31-.88-.63-1.37-1a1,1,0,0,0,.15-.75l0-.09a136.23,136.23,0,0,0,5.18-19.17c.35-1.76,1.82-1.57,3.13-1.6a23.35,23.35,0,0,1,4.43-.27c2.62.32,4.77,1.33,2.79,4.5-1.14,1.83-1.21,3.32,1.07,3.72,5,.87,9.93,3.95,15.09.58.81-.53,1.11.33,1.55.65,1,.72.54,1.29-.23,1.91-1.14.92-3.24,2.56-3.08,2.84.91,1.61-2.47,6.42,3.18,4.71a2,2,0,0,1,1.59.81.92.92,0,0,1-.78,1.43c-2.07.21-2.28,2-3.23,3.28-1.66,2.29-3.21,6.14-6.8,1.44-2.31-3-4.86,1-7.4.51-.28,4.89-4.3,3.36-7,3.89-2,.39-4,.26-4.86,2.61-.4,1-.94,2.49-2.33,2.13-1.72-.45-1.91-2.07-1.79-3.65l1.46-.94c-.28-.28-.52-.74-.84-.8-1-.18-1.25.6-1.52,1.33l-.37,2.56-3.71-.28c.87-1.43.14-2.27-1.08-2.94.06-6.94.06-6.91-7-7.18a7.05,7.05,0,0,1-2.25-1l1-1.05C256.3,198.38,257.88,195,260.28,193.79ZM283.35,195c-1.49-2.52-5.38-1.28-4.61-5,.17-.83-1.21-.74-2-.35-.94.47-1.6,1-1.3,2.28C276.55,196.74,280.09,194.7,283.35,195Z"/><path class="cls-4" d="M272.09,131c-2.57,4.16-5.94,0-8.83.85,1.48-2.59,1.38-4.41-1.84-5.8-12.85-5.55-26.45-9.1-39.16-15,.63-6.17,2.5-12.39-1-18.37-1-1.72.21-2.69,1.82-3.18,3.06.84,6.82-.64,9.1,3.12.38.63,3.07-.13,4.7-.24,2.25,2.28,1.93,5.57,3.38,8.13-4.53,1.05-7.93-4.93-14.27-.61,7.23-1.08,9.82,1.3,8.15,7.09-.78,2-1.07,3.62,1.82,4.09a59.32,59.32,0,0,1,6,1.61c3,1.77,8.13,1.16,9.34,4,2.47,5.84,7.35,5.15,11.73,6.27l.1.06a3.81,3.81,0,0,0,.21,1.44c1.3,2.08,3.81,2,5.6,2.14,3.75.22-.61,4,2.24,4.2A5.42,5.42,0,0,1,272.09,131Z"/><path class="cls-3" d="M234.1,107c1.67-5.79-.92-8.17-8.15-7.09,6.34-4.32,9.74,1.66,14.27.61-1.45-2.56-1.13-5.85-3.38-8.13,6.4-2.68,7.31-2,7.5,4.68.13,4.4,3.92.68,5.51,2.09,1.39,4,4.69,2.84,7.57,2.81,5.21,1.53,1.61,4.84,1.57,7.48,0,1.86-3.38,3.31-1.11,5.09,1.75,1.37,3.57-.77,5.34-1.42a5.35,5.35,0,0,1,1.44-.12l.39,2.41c-.7.93-2.3,1.36-1.13,3.19a3.17,3.17,0,0,1-.93,4.37c-4.38-1.12-9.26-.43-11.73-6.27-1.2-2.85-6.32-2.24-9.34-4C242,107.07,236.9,108.61,234.1,107Zm13.19-5.27c-1.75,1-4.83.72-4,4a2.08,2.08,0,0,0,2.22,1.65C248.44,106.5,246,103.52,247.29,101.7Zm-6.59,4.51c-.49-.42-.81-.91-1.14-.92s-.67.47-1,.74c.28.32.53.85.85.89S240.12,106.55,240.69,106.21Z"/><path class="cls-3" d="M275,174c0-2.51-1.18-4.7,2.65-6.58,4.32-2.13,2.37-8.84-2.61-10.46l-3.09.39c-.72-.24-1.53-.34-1.74-1.28,2.76-.52,4.37-1.83,2.22-4.51-1.31-1.63-.2-2.52.36-3.71q.2-.29.38-.59l1.57.1,6.31.57c.34,1,1.17,1,2,.93l2.86-.23L287,149c1.13.66,2.18,1.68,3.39,1.93,3.92.81,6,2.23,3.07,6.32-.81,1.14-.41,2.44,1.12,2.57,3.94.33,1.81,2.19.8,3.37-3.74,4.39-8,7.78-14.35,5.94-1.55-.45-2,.8-2.25,2C278.31,173.17,277.27,174.37,275,174Zm12.85-11.11a1.31,1.31,0,0,0-1.34-1.62c-1.25-.07-1.53,1-1.84,1.93-.38,1.08.28,1.51,1.22,1.54C287.07,164.74,287.47,163.8,287.82,162.86Zm3-2.2.35-.15-.35-.15Z"/><path class="cls-4" d="M262.08,208.89l3.71.28c.65,1.94-3.81,3.82-.07,5.79-3.92,2.93-10,4.16-8.69,11.19-1.15-.55-1.3-1.75-1.77-2.74s1.06-4.43-2.35-1.6c-1,.84-.67-2.82-2.75-2.11-3.82-3.65-9-2.83-13.51-3.59-3.49-.59-3.62-1.8-2.79-4.39,3.76-.59,7-2.58,10.43-4a.94.94,0,0,1,.84.37C248.44,211.78,255.85,212.12,262.08,208.89Z"/><path class="cls-5" d="M164.15,23.72c4.3,1.15,3.63,5.08,4,8s.92,5.72,3.63,7.5l.54,1.64c0,1.79-1.72,3.79.65,5.29-.73,3-4.65,1.36-5.74,3.87l-.38-1c.78-4.16-3-5.49-4.94-8,0-.55-.06-1.1-.08-1.66.38-1,.38-1.83-.7-2.37C159.73,31.67,161,25.85,164.15,23.72Z"/><path class="cls-4" d="M276,142a6.41,6.41,0,0,1,.54-2.32c2-2.77,2.89-5.24-1-7.19-.33-.17-.25-1.17-.36-1.79,1.47-1,3.49,2.71,4.69-.55,7.14,4.07,9.71,9.4,7.15,14.85C284.6,140.27,282.12,139.6,276,142Z"/><path class="cls-5" d="M276,142c6.12-2.4,8.6-1.72,11,3l-.21,2.95-.89.66-2.86.23c-.38-.93-.55-2.31-2-.93l-6.31-.57L276,142Z"/><path class="cls-3" d="M279.86,130.15c-1.2,3.26-3.22-.43-4.69.55l-3.08.3a5.36,5.36,0,0,0-.94-.23c-2.85-.18,1.51-4-2.24-4.2-1.79-.1-4.3-.06-5.6-2.14a3.81,3.81,0,0,1-.21-1.44C269.16,124.26,274.61,127,279.86,130.15Z"/><path class="cls-3" d="M257,226.15c-1.34-7,4.77-8.25,8.69-11.19,3.1,1.18,3,3,.52,4.53-2.79,1.76-6.63,2.19-6.79,6.73C259.43,227,257.85,227.06,257,226.15Z"/><path class="cls-3" d="M173,46.15c-2.38-1.5-.64-3.5-.65-5.29,2,.46,2.32,1.94,2.6,3.67.41,2.58,1.32,5.12,3.61,6.55,2.52,1.58-.82,1.83-.44,2.83l-.94.63a4.23,4.23,0,0,1-3.48-3.47C173.27,49.55,174.73,47.63,173,46.15Z"/><path class="cls-3" d="M281.29,72.79c.09,4.53-2.05,6.7-4.26,8.92-1.5,1.51-2.53,1.06-3.56-.39S273,79,274.64,78.66C277.52,78,278.81,75.28,281.29,72.79Z"/><path class="cls-4" d="M257.42,101.95c-2.88,0-6.18,1.18-7.57-2.81-.21-2.64,1.71-3.23,3.52-2.91C256.34,96.76,257.86,98.78,257.42,101.95Z"/><path class="cls-4" d="M202,90c3.44,0,2.57-3.68,4.51-5.47,2.81,3.23.47,5.92-.4,8.67-.75,2.38-2.08,1.37-3.38.66A3.56,3.56,0,0,0,202,90Z"/><path class="cls-4" d="M202,86c-1.52.6-2.78,2.46-4.73,1-.39-3.38,1.48-5.22,4.34-6.39q.21,2.7.42,5.39Z"/><path class="cls-3" d="M276.35,120.13c-3.7-1.35-6-2.43-5.44-5.89.14-.89.82-2,1.41-1.72C275.06,113.82,275.06,116.68,276.35,120.13Z"/><path class="cls-3" d="M215,35.77c-1.48-.22-1.9-.83-1.61-1.8.61-2,3.62-1.88,3.91-4.24A1.92,1.92,0,0,1,218.78,32C218.45,34.39,216.26,34.79,215,35.77Z"/><path class="cls-4" d="M204,75a16.83,16.83,0,0,1,3.37,2c1.09,1,.58,2.47.14,3.72-.22.62-.63,1.22-1.45.87-1.5-.65-.78-1.94-.82-3s.11-2-1-2.54Z"/><path class="cls-3" d="M213.27,51.7c-.06,2.42,0,4.89-2.85,6.68C210.26,55.41,210.78,53.19,213.27,51.7Z"/><path class="cls-4" d="M198,96.58c1.75,1.79.84,3.26-1,3.7-1.49.36-.65-1.39-.95-2.16Z"/><path class="cls-4" d="M265.05,115.38l-.39-2.41c1.4.39,2.75-2.67,3.59-.74S266.88,115,265.05,115.38Z"/><path class="cls-4" d="M266.16,206.6c.27-.72.55-1.51,1.52-1.33.32.06.56.52.84.8l-1.46.94A2.31,2.31,0,0,0,266.16,206.6Z"/><path class="cls-3" d="M218.79,82.25c1.68.81,1.63,2,1.48,3.56C218.35,85,218.88,83.67,218.79,82.25Z"/><path class="cls-3" d="M216,85l-2,1,0,0,2-1Z"/><path class="cls-4" d="M285.9,148.61l.89-.66L287,149Z"/><path class="cls-3" d="M216,85l.19-.36L216,85Z"/><path class="cls-5" d="M150,131.88c2.52,1.34,3.14,4.69,6,5.67.32,1.77.68,3.53,2.55,4.42,1.64,3.59-.06,5.38-3.38,6.31L151.1,148c-8.41-2.56-14.7-8.43-21.37-13.69,1.37-3.28-4.25-3.67-2.89-6.95,5.15-3.33,7-8.74,6.44-14.11-.55-5.72,1.69-10.19,3.65-15l1.1.48L138,98l.13-1.93c.85-.51.42-.9-.11-1.29a.68.68,0,0,1,.13-.75c3.18-.72,5.46.51,7.05,3.24-.84,1.08-1.65,2.36-.63,3.54,3,3.44,1.67,8.05,3.46,11.8.56,1.17.86,2.65-.28,3.54-3.44,2.69-1.29,5.2.05,7.77-1.51.3-2.35.81-.62,2.07l.89,3A2.41,2.41,0,0,0,150,131.88Z"/><path class="cls-6" d="M138.13,94a.68.68,0,0,0-.13.75l.11,1.29L138,98l-1,.26c-2,4.8-4.2,9.27-3.65,15,.52,5.38-1.29,10.78-6.44,14.11L121,124.41c6.47-1.94,6-6.88,5.85-12.21-.1-3-2-4-3.51-5.46-1.87-1.85-3.15.61-4.55,1.45a8.33,8.33,0,0,0-4.24,7.86c-1.44-.11-2.61-1.7-4.25-.8a1.57,1.57,0,0,0-.39-.55c.41-2.41.27-5.1,1.35-7.15,1.65-3.15-.13-3.2-2.24-3.46.4-1.68,1.13-3.38-.34-4.93l-3-5.87c3-1.58,5.64,0,8.15,1.18,4,1.85,7.12,1.92,9.09-2.64,4,.18,8.07.4,12.1.53C136.4,92.4,137.65,92.44,138.13,94Z"/><path class="cls-4" d="M173,46.15c1.74,1.48.28,3.4.7,4.93a4.23,4.23,0,0,0,3.48,3.47Q176,57.3,174.93,60c-.81-.1-2.24-1.44-1.85.91L171.87,62a1.89,1.89,0,0,1-2.08-.69c-1-3.72-.89-7.7-2.54-11.27C168.34,47.52,172.26,49.2,173,46.15Z"/><path class="cls-2" d="M174,96c.56.8,2.22-.06,2.25,1.29s-1.12.77-1.83.78c-2.58,0-5.16,0-7.74,0-3.14.84-6.55-.81-9.61,1a1.58,1.58,0,0,1,.6-2.45c6.53.08,6.32-5.12,7.38-9.26.25-1,.3-2,1.23-2.56l1.82.79c-3.07,1.69,1.56,4.32-.82,6.25-2.75,2.23-.67,3.26,1.34,4A8.16,8.16,0,0,0,174,96Z"/><path class="cls-4" d="M122.94,91.82c-2,4.56-5.13,4.49-9.09,2.64-2.51-1.17-5.16-2.76-8.15-1.18-.86-1.77-3.33-3-1.69-5.57Z"/><path class="cls-5" d="M148.23,64.06c1.56-.24,2.81,1.79,4.52.58,2.83-2,2.09,1,2.8,2s1.73,1.88,1.5,3.31a1.19,1.19,0,0,0-.31.86,14.28,14.28,0,0,1-12.46-3.89A5,5,0,0,1,148.23,64.06Z"/><path class="cls-4" d="M148.23,64.06a5,5,0,0,0-4,2.88c-1.44-.92-3.78-.82-3-3.87.45-1.74,1-2.65,2.66-2.71C146.4,60.29,147.71,61.76,148.23,64.06Z"/><path class="cls-2" d="M158.43,112.77c-1.78.4-2.13,4.9-4.88,2-2.24-2.32-4-5.22-2-8.72C152.57,109.65,157.53,109.13,158.43,112.77Z"/><path class="cls-3" d="M156.73,70.83A1.19,1.19,0,0,1,157,70l4.41-4.46,3.55.68a1.7,1.7,0,0,1,.08,2.46,4.76,4.76,0,0,0-3.34,2.49C159.82,75,158.25,73.36,156.73,70.83Z"/><path class="cls-3" d="M100.49,77.2c-1.9.1-4.31,2-5.52.3-1.32-1.83-.07-4.34,1.09-6.36C98.07,72.77,100.38,74.17,100.49,77.2Z"/><path class="cls-4" d="M161.92,41.08c1.92,2.49,5.72,3.82,4.94,8C162.66,48,161.51,45,161.92,41.08Z"/><path class="cls-2" d="M161.46,65.5,157,70c.23-1.43-.74-2.32-1.5-3.31a3.63,3.63,0,0,1,3.8-3l2.17.09Z"/><path class="cls-2" d="M165.08,68.65a1.7,1.7,0,0,0-.08-2.46l3.08-.22.09.1c-.29,2.13,1.82,1.73,2.74,2.57C169,72.27,167,69,165.08,68.65Z"/><path class="cls-5" d="M169.78,61.3a1.89,1.89,0,0,0,2.08.69c-1,1.56-.34,4.64-3.69,4.08l-.09-.1-.17-2.57a2.62,2.62,0,0,0,.09-.79Z"/><path class="cls-2" d="M168,62.61a2.64,2.64,0,0,1-.09.79l-6-.38,0,.08C163.79,61,166,62.64,168,62.61Z"/><path class="cls-3" d="M161.51,63.76l-2.17-.09,2.58-.58,0-.08A.65.65,0,0,1,161.51,63.76Z"/><path class="cls-4" d="M161.14,37.06c1.08.54,1.08,1.39.7,2.37Z"/><path class="cls-3" d="M95.22,69.11a2.8,2.8,0,0,1-.38-.56l.42.13Z"/><path class="cls-3" d="M22,24a7,7,0,0,0,1.24-1.46c3.78-8.29,3.82-8.31,14.05-7A85.24,85.24,0,0,0,24.49,25.86C22,28.36,22.26,25.44,22,24Z"/><path class="cls-3" d="M3.22,20.94c1.87-6.63,7-11.34,11.67-11.83,1.36-.14,2.9-.14,3,1.68.12,2-.27,4.62-2.64,4.69C10.89,15.6,7.43,17.44,3.22,20.94Z"/><path class="cls-3" d="M57.94,53.95c1-2.57-2.48-5.88,1.48-8.08,1.58-.88,3.15-2.72,4.71-1.28s1.31,3.91-.26,5.72C63.14,51.16,62,51.68,62,53l0,0-1,1,0,0-3,.09Z"/><path class="cls-3" d="M57,33.83C55,38,51.2,40.89,50,45.29A2.42,2.42,0,0,1,48,46.52c-1.11,0-.87-1.16-.93-1.94C46.82,40.82,52.5,34.45,57,33.83Z"/><path class="cls-3" d="M29,29l-3.65-.44A33.5,33.5,0,0,1,41,20.3C38.14,25,31.89,24.57,29,29Z"/><polygon class="cls-3" points="59.08 31.69 58.73 31.51 59.11 31.37 59.08 31.69"/><path class="cls-3" d="M57,55l1-1,.11.12-1,1Z"/><path class="cls-1" d="M215.13,179.9a.48.48,0,0,0,.48.22L224,203.88l-.35,4.24C222,209.25,220,210,219,212c-1.49.23-3.26-1.82-4.47.39-.72,1.32.67,2.11,1.28,3,1.56,2.27,2.49-.16,3.59-.67,1.29-.6,2.49-1,3.73-.1a1.93,1.93,0,0,1,.75,2.21c-.57,1.7-2.08,1.25-3.36,1.42-1,.13-2.72-.74-2.66,1.14,0,1.3,1.35,1.06,2.38.85,2-.39,2.83.84,2.91,2.51.15,2.95-.63,5.51-3.3,7.33-2,1.34-3-.22-3.63-1.27-1.72-2.94-6-5.11-2.81-9.73,1.26-1.82-1-2.55-2.39-2.83-2.36-.5-5.1-1.57-6.63,1.43-.8,1.56-.1,2.52,1.71,3.34,3.61,1.64,4.18,7.24,1.28,10a3.32,3.32,0,0,1-5.73-1.82c-.4-2.79-1.61-5.77,0-8.63,1-1.75,1.61-3-1.34-3.88-4-1.25-6.62-4-4.54-8.73a27,27,0,0,0,3.06-15.6c-.19-1.92.4-3.24,2.32-3.8,2.57,2,3.13-1.15,4.64-1.85,2.33-.08,4.08-.56,4.34-3.53C210.42,180.44,212.26,179.18,215.13,179.9Z"/><path class="cls-5" d="M244.3,207.72c-3.45,1.4-6.67,3.39-10.43,4l-4.71.32-1.25-3.23a4.91,4.91,0,0,0,.16-.72c2.7.83,5.44,2.06,5.71-2.7,0-.89,1.85-2.35,2.92-2.41,4.91-.31,6.53-4.5,9.16-7.39,4.14-4.56,4.67-4.56,6.93,1.17l-1,1.05c-1.43,1.35-3.85,1.1-4.93,3-1.05.81-4.37.16-2,3.2.46.6.33,1.15-.86,1.49C240.08,206.63,244.95,206.85,244.3,207.72Z"/><path class="cls-4" d="M227.9,208.8l1.25,3.23c-3.39,1.22-6.78,1.63-10.17,0,1-2,3-2.77,4.71-3.89C225.21,207.7,226.66,207.6,227.9,208.8Z"/><path class="cls-6" d="M222.25,111c12.7,5.91,26.31,9.46,39.16,15,3.22,1.39,3.32,3.21,1.84,5.8l-1.88,3.09a.56.56,0,0,0-.34.73c-2.86,5.8-5,11.95-7.64,17.77-3.41,7.47-3.84,15.85-8.05,22.94a6.05,6.05,0,0,0-.45,2.87c-.05,4-2.61,4.57-4.78,2.43-2.75-2.71-6-2.24-9-3.09-6.69-1.84-13.25-4.15-19.85-6.29-4-1.3-8.37-1.3-12.18-3.32h0c.36-5.34-.09-10.74,1.19-16a4.23,4.23,0,0,0,1.37-3.92l1.18-6a.61.61,0,0,0,.24-.78l4-14.4a9.88,9.88,0,0,0,3.93-8.56c2.69-.47,5.06-2.25,9.37-1.32-3.69-3-3.73-6-3.66-9l3.7.64Z"/><path class="cls-5" d="M207,127.92l-4,14.4c-.11,0-.32.09-.32.13a3.86,3.86,0,0,0,.09.65l-1.18,6a15.81,15.81,0,0,1-7.9-3.76c-2.16-1.7-4.34-3.38-6.9-5.37-1.25,4.36,2.86,6.7,2.9,10.7-2.45-1.08-5.8.33-6.65-3.64l-.79-2.89c3-2.28,4.54-4.87,2.33-8.64-.57-1-2.39-2.9.31-3.4,3.78-.69,3.59-3.13,3.26-5.86,2.25,2,4.54-.65,6.8.07,2.5,1.39,4.95,1.59,7.19-.46,1.16-1.06,1.93-3.22,3.83-2.38S206.52,126.42,207,127.92Z"/><path class="cls-4" d="M207,127.92c-.48-1.5.8-3.68-1-4.49s-2.68,1.32-3.83,2.38c-2.24,2.05-4.69,1.85-7.19.46,2-1.85,4.41-3.6,1.86-6.71,2.71-4.22,2-9,2.07-13.58,3.84,1.08,1.92-4.32,4.83-4.29,1.37,1.92,2.12,4.84,5.55,3.44.79,2.47,4.67,3.24,3.54,6.88-.38,1.21,0,2.36-1.65,3.06-2.6,1.09-1.46,2.79-.21,4.3A9.88,9.88,0,0,1,207,127.92Z"/><path class="cls-5" d="M198.88,106c-.1,4.62.64,9.36-2.07,13.58l-1.91-.3a.63.63,0,0,0-.76-.28l-.14-.13-2.69-2c-.72-.77-2.1-1.42-2.2-.14-.34,4.59-4.15,4.61-6.22,3.52-2.91-1.53-4.25-4.94-2.29-8.48a24.32,24.32,0,0,1,2-2.73c1.62-2.23,7.42.49,6.12-5.18l.17-.08,2.19.16A11,11,0,0,1,198.88,106Z"/><path class="cls-2" d="M161.86,152.86c.83-2.25,4.28-2.67,4-5.7-1.11-2.69.77-3.67,2.36-2.5,2.07,1.52,3.93,1,6.5.7-1,2.7-2,4.94-1.7,7.6.12.92-.31,1.64.8,2.1.86.36,1.37,1,1,1.93s-1.25.71-2.06.49-2.46-.61-2,.86c.56,1.81.24,2.62-1.47,2.6s-3.24-1.07-3-2.65C166.69,154.7,164.15,154,161.86,152.86Z"/><path class="cls-4" d="M188.14,126.19c.33,2.73.52,5.17-3.26,5.86-2.7.5-.88,2.43-.31,3.4,2.21,3.77.65,6.36-2.33,8.64-4.22.28-4.44-4.44-7.28-6-.47-.26.44-3.28,1.37-2.78,4.64,2.5,3.71-1.57,3.75-3.27C180.19,126.3,185.05,127.57,188.14,126.19Z"/><path class="cls-4" d="M156.2,183.2V179c-2.08-.81-3,5.48-5.49.21-.68-1.42-4.31-.63-6.6-.28l-.45-1.89c4.09-.68,8.17-1.37,12.27-2,.06,0,.14.79.33.85,1.43.48,3.44-2.5,4.45.92a16.07,16.07,0,0,1-1.25,10.58Z"/><path class="cls-1" d="M174,96a8.16,8.16,0,0,1-5.38-.09c-2-.74-4.09-1.78-1.34-4,2.39-1.94-2.25-4.56.82-6.25,3-.4,4.92,2,7.28,3.12.9.44,1.36,1.59.12,2.77A5.16,5.16,0,0,0,174,96Z"/><path class="cls-4" d="M158.55,142c-1.87-.89-2.22-2.65-2.55-4.42-.3-1.61-.49-3.25-.92-4.82-.81-2.92,1.06-3.32,2.93-2.71a5.26,5.26,0,0,1,3.25,6C160.65,137.9,162.83,141.7,158.55,142Z"/><path class="cls-4" d="M121,124.41l5.87,2.94c-1.37,3.29,4.25,3.67,2.88,7-5.14-2.7-8.59-7.41-13-11l.49-.54Z"/><path class="cls-4" d="M110.28,115.24c1.64-.89,2.8.69,4.25.8l2.68,6.75-.49.54L111.88,121Z"/><path class="cls-5" d="M209.26,105.12c-3.43,1.41-4.18-1.52-5.55-3.44,0-1.78-1.48-4.43,2.36-3.81l.21.13Z"/><path class="cls-4" d="M151.1,148l4.07.29c-.1,2.48-3.62,2.55-3.65,5.3,0,.77-1.74.46-2.66.2a2.61,2.61,0,0,1-1.92-2.57,1.83,1.83,0,0,1,1.56-2.14C149.46,148.91,150.5,149,151.1,148Z"/><path class="cls-4" d="M188.79,103.84c1.29,5.67-4.51,2.95-6.12,5.18-.74-.2-2.41.4-1.56-1.3a5,5,0,0,1,3.73-2.8l1.14.53-1.06-.63C185.56,101.93,187.22,103.1,188.79,103.84Z"/><path class="cls-4" d="M220.33,109.65l-3.7-.64c-2.3-.46-2.17-2.2-1.91-3.85.08-.52.71-1.3,1.15-1.34,1.71-.18,2,1.41,2.6,2.49S220.51,108.09,220.33,109.65Z"/><path class="cls-4" d="M206.28,98l-.21-.13c0-1.06.34-2.25,1.6-1.87,2.28.68,3.57,2.45,4.55,5.62Z"/><path class="cls-4" d="M150,129c.07-1-.9-2.57,1-2.6a1.69,1.69,0,0,1,1.7,2.37c-.68,1.83-1.81.54-2.77.17Z"/><path class="cls-4" d="M150,131.88a2.41,2.41,0,0,1-1.95-2.94l2,.08L150,129Z"/><path class="cls-4" d="M147.17,126c-1.73-1.27-.9-1.77.62-2.07A1.68,1.68,0,0,1,147.17,126Z"/><path class="cls-4" d="M191.32,116.85l2.69,2C192.72,118.7,191.53,118.45,191.32,116.85Z"/><path class="cls-2" d="M173.08,60.94c-.39-2.35,1-1,1.85-.91A1.62,1.62,0,0,1,173.08,60.94Z"/><path class="cls-4" d="M191.15,103.92l-2.19-.16C189.78,102.52,190.47,103.17,191.15,103.92Z"/><path class="cls-4" d="M194.14,119a.63.63,0,0,1,.76.28l-.45.56Z"/><polygon class="cls-4" points="202.02 85.99 202.28 86.22 201.99 86.01 202.02 85.99"/><path class="cls-5" d="M200.21,153c-1.27,5.27-.83,10.67-1.19,16-2.3-.24-2.69-2.11-3.23-3.82a24.75,24.75,0,0,0-3.48-7.5c-2.14-2.93-1.61-4.86,2.49-4.73C196.61,153,198.41,153,200.21,153Z"/><path class="cls-5" d="M205.83,186.73c-1.52.7-2.08,3.8-4.64,1.85.28-1.57-1-3.75,1.68-4.36C204.92,183.74,205.07,185.62,205.83,186.73Z"/><path class="cls-5" d="M62,77.26a5.36,5.36,0,0,1-2.25-4c2.8,1.07,5.44,2.52,8.41,1.57,3.71,4.16,9.1,5.71,13.58,8.67l-1,.83L78.34,84a.88.88,0,0,1-.4-.34L77.07,83a7.37,7.37,0,0,1-3.47-1.3C70.18,79.27,66.62,76.7,62,77.26Z"/><path class="cls-5" d="M106.86,105.24c-.11,2-.65,3.91-3,3.79-2.71-.13-5.78-.2-7.69-2.39-1.33-1.53-1.82-3.78-2.68-5.71C97.74,103.08,101.71,106,106.86,105.24Z"/><path class="cls-2" d="M57,55l1-1L61,54c.08,1.37-.09,2.66-1.73,2.95C57.9,57.17,57.25,56.31,57,55Z"/><path class="cls-5" d="M85,86.87l-2.94.36-1.36-1.29,0-1.63,1-.83Z"/><path class="cls-6" d="M109.06,104l-1.06.86Z"/><path class="cls-2" d="M61,54l1-1Z"/><path class="cls-6" d="M80.73,85.94l1.36,1.29c1.12,3.4,4.52,6,3.65,10.1-3.13-3.64-6.72-5.38-11.36-2.71-.44-2.1-.86-4.2-1.34-6.3-.94-4.11-3.57-5.81-7.7-5.32l-2.27-.05c2.52-2.46.46-4-1.11-5.69,4.64-.55,8.2,2,11.62,4.46A7.37,7.37,0,0,0,77.07,83l.88.65a.87.87,0,0,0,.39.34A2.72,2.72,0,0,0,80.73,85.94Z"/><path class="cls-2" d="M65.35,83c4.13-.49,6.76,1.21,7.7,5.32.48,2.09.89,4.2,1.34,6.3a14.07,14.07,0,0,1-.88,2.8c-.53,1-1.27,2.19-2.59,1.8-1.14-.34-.87-1.68-.86-2.58C70.12,91.52,67,87.51,65.35,83Z"/><path class="cls-6" d="M51.94,80.52c-1.79-.21-2.53-1.6-1.63-2.77,1.11-1.44,1.36-4,4-3.91,1.75.06,2.92.66,2.68,2.68C55.89,78.59,53.44,79,51.94,80.52Z"/><path class="cls-5" d="M88.25,108.1c4.32-1.23,5,3.36,7.58,4.8C90.56,115.63,89.79,111.26,88.25,108.1Z"/><path class="cls-6" d="M54,83c-1.7,0-2.37-.86-2.06-2.52A3.25,3.25,0,0,1,54,83Z"/><path class="cls-6" d="M55.48,85.06A1.63,1.63,0,0,1,54,83Z"/><polygon class="cls-2" points="17.98 48.98 17.75 49.27 18.02 49.01 17.98 48.98"/><path class="cls-4" d="M133.6,190.15c4.27-1.62,7-1.45,10.21,1.48C140.14,192,137.33,192.23,133.6,190.15Z"/><path class="cls-4" d="M147.33,190.72l-.62.57a3,3,0,0,1-.35-.59c0-.07.2-.31.27-.29A3.75,3.75,0,0,1,147.33,190.72Z"/><path class="cls-4" d="M252.77,196.75c-2.26-5.73-2.78-5.73-6.93-1.17-2.63,2.89-4.25,7.08-9.16,7.39-1.06.07-2.87,1.52-2.92,2.41-.26,4.76-3,3.54-5.71,2.7,2.37-3.13,5.16-6,5.91-10.1l.17-.13L234,198c-3.3,2-5.16,6.42-10,5.85l-8.43-23.76c9,2.77,18,5.23,26.84,8.45a67.94,67.94,0,0,0,11.93,2.69,9.17,9.17,0,0,1,.06,1.89c-.23,1.34.17,2.55,1.56,2.23s.27-1.57.16-2.4c-.08-.64-.24-1.27-.37-1.9.31-1.16-1.42-3.18,1.3-3.32a2.75,2.75,0,0,1,3,2.59,29.75,29.75,0,0,1,.15,3.43C257.88,195,256.3,198.38,252.77,196.75Z"/><path class="cls-4" d="M272.77,147.83c-.56,1.18-1.67,2.07-.36,3.71,2.15,2.68.54,4-2.22,4.51-1.51-1.35-2.66-.57-3.78.6-.73.77-1.54,1.3-2.49.29a2,2,0,0,1-.25-2.7c1.36-2.11,3.28-3.87,2.63-6.91-.15-.69,1.72-2.83,3.21-.73C270.42,147.88,271.31,148.39,272.77,147.83Z"/><path class="cls-4" d="M263.45,175.16l1.24-5.09,1,.2-1.24,5.23Z"/><path class="cls-4" d="M263.54,177.5c1.68,1.08,2.58,2.11,1.9,3.76a1.28,1.28,0,0,1-1.19.24C262.67,180.6,262.69,179.26,263.54,177.5Z"/><path class="cls-3" d="M255.8,191.09c.13.63.29,1.26.37,1.9.1.84,1.23,2.08-.16,2.4s-1.79-.89-1.56-2.23a9.17,9.17,0,0,0-.06-1.89Z"/><path class="cls-4" d="M276,142l-1.27,5.33-1.57-.1A7.34,7.34,0,0,1,276,142Z"/><path class="cls-4" d="M271.93,157.32l3.09-.39C274.08,157.82,273.09,158.26,271.93,157.32Z"/><path class="cls-4" d="M266.32,197.55c.48.32,1.37.64,1.37,1,0,.67-.72.85-1.39.75Q266.31,198.4,266.32,197.55Z"/><path class="cls-4" d="M266.1,199.29c-.55.73-.94.35-1.3-.2Z"/><path class="cls-4" d="M261,135.67a.56.56,0,0,1,.34-.73C261.65,135.37,261.51,135.6,261,135.67Z"/><path class="cls-4" d="M266.52,196.72l0,.09-.75-.3Z"/><path class="cls-5" d="M262.08,208.89c-6.23,3.24-13.64,2.89-16.95-.79,1.74-.44,3.66-.63,4-3,1.31-.08,2.74.08,3.6-1.23,2.53-3.86,4.58-2.27,6.59.52.44.62.6,1.62,1.7,1.53C262.22,206.61,263,207.46,262.08,208.89Z"/><path class="cls-2" d="M261,205.95c-1.1.09-1.26-.91-1.7-1.53-2-2.8-4.05-4.38-6.59-.52-.86,1.31-2.29,1.15-3.6,1.23-1.83-.86-2-2.59-2.26-4.29,1.08-1.93,3.5-1.68,4.93-3a7.05,7.05,0,0,0,2.25,1C261.06,199,261.06,199,261,205.95Z"/><path class="cls-2" d="M283.35,195c-3.26-.32-6.8,1.72-7.91-3.07-.3-1.29.36-1.82,1.3-2.28.79-.39,2.17-.48,2,.35C278,193.75,281.86,192.5,283.35,195Z"/><path class="cls-2" d="M234.1,107c2.8,1.64,7.91.1,7.82,5.7a59.24,59.24,0,0,0-6-1.61C233,110.59,233.32,108.94,234.1,107Z"/><path class="cls-2" d="M247.29,101.7c-1.25,1.81,1.16,4.8-1.81,5.63a2.08,2.08,0,0,1-2.22-1.65C242.46,102.42,245.53,102.71,247.29,101.7Z"/><path class="cls-4" d="M240.69,106.21c-.57.34-1,.76-1.3.71s-.57-.58-.85-.89c.34-.27.68-.74,1-.74S240.2,105.79,240.69,106.21Z"/><path class="cls-2" d="M287.82,162.87c-.36.94-.76,1.87-2,1.84-.94,0-1.6-.45-1.22-1.54.32-.9.6-2,1.84-1.93A1.31,1.31,0,0,1,287.82,162.87Z"/><path class="cls-4" d="M281,147.9c1.45-1.38,1.62,0,2,.93C282.21,148.88,281.38,148.92,281,147.9Z"/><polygon class="cls-2" points="290.87 160.66 290.88 160.37 291.22 160.52 290.87 160.66"/><path class="cls-3" d="M246.86,200.83c.24,1.7.42,3.43,2.26,4.29-.32,2.34-2.24,2.53-4,3a.94.94,0,0,0-.84-.37c.65-.87-4.22-1.1-.3-2.2,1.19-.34,1.32-.89.86-1.49C242.49,201,245.81,201.64,246.86,200.83Z"/><path class="cls-4" d="M136.94,98.25l1-.26.05.74Z"/><path class="cls-4" d="M138.11,96.06,138,94.77C138.52,95.16,139,95.55,138.11,96.06Z"/><path class="cls-5" d="M117.21,122.79,114.53,116a8.33,8.33,0,0,1,4.24-7.86c1.4-.84,2.67-3.3,4.55-1.45,1.47,1.45,3.41,2.51,3.51,5.46.18,5.33.62,10.27-5.85,12.21Z"/><path class="cls-1" d="M161.51,63.76a.65.65,0,0,0,.44-.75l6,.38.17,2.57-3.08.22-3.55-.68C161.48,64.92,161.49,64.34,161.51,63.76Z"/><path class="cls-3" d="M224,203.88c4.8.57,6.66-3.86,10-5.85l0,0c-.74,4.08-3.54,7-5.91,10.1a4.88,4.88,0,0,1-.16.72c-1.24-1.2-2.7-1.11-4.2-.68Q223.87,206,224,203.88Z"/><path class="cls-4" d="M202.77,143.09a3.86,3.86,0,0,1-.09-.65s.21-.09.32-.13A.62.62,0,0,1,202.77,143.09Z"/><path class="cls-5" d="M184.91,104.82l1.06.63-1.14-.53Z"/><path class="cls-4" d="M80.73,85.94A2.72,2.72,0,0,1,78.34,84l2.35.32C80.7,84.86,80.72,85.4,80.73,85.94Z"/><path class="cls-4" d="M77.95,83.66,77.07,83Z"/><polygon class="cls-3" points="234.01 198.03 234.14 197.86 233.97 197.99 234.01 198.03"/></g></svg>