<svg id="Layer_1" data-name="Layer 1" xmlns="http://www.w3.org/2000/svg" viewBox="0 0 127.79 127.86"><defs><style>.cls-1{fill:none;stroke:#231f20;stroke-miterlimit:10;stroke-width:2px;}.cls-2{fill:#243726;}.cls-3{fill:#e7b675;}.cls-4{fill:#de9f57;}.cls-5{fill:#25381d;}.cls-6{fill:#e3c68c;}.cls-7{fill:#d8b368;}.cls-8{fill:#e8e7e7;}.cls-9{fill:#cac9c9;}.cls-10{fill:#cf853d;}.cls-11{fill:#e4cb98;}.cls-12{fill:#2e4522;}.cls-13{fill:#efdfbe;}.cls-14{fill:#f6eddb;}.cls-15{fill:#edd8ad;}.cls-16{fill:#f9f4eb;}.cls-17{font-size:20.49px;fill:#231f20;font-family:Helvetica-Light, Helvetica;}</style></defs><title>logo</title><polyline class="cls-1" points="127.79 127.22 0.5 127.22 0.5 127.86 0.5 0.56"/><path class="cls-2" d="M97.07,125.7c-4-4.4-9.14-7.26-13.67-10.94-7.36-6-14.57-12.06-20.55-19.49A32.62,32.62,0,0,1,55.38,76.7c2.4-.29,3.94.61,5.23,2.79,3.12,5.24,6.28,10.48,10.6,14.9a13.54,13.54,0,0,1,4,6.69c2.67,5.33,7.83,8.22,11.89,12.18,2.38,2.32,4.79,2.95,7.73,1.36a9.9,9.9,0,0,0,7.18,4.06l2,2.82-5.93,4.2Z"/><path class="cls-3" d="M7.27,17.63c-2.2.17-2.51-2.37-4.2-2.93a21.78,21.78,0,0,0,0-3.86c-.76-4.19.66-6.07,5-5.14-.82,3.07,3,4.18,2.93,6.93C8.71,13.52,8.58,16,7.27,17.63Z"/><path class="cls-4" d="M11,12.63c.06-2.75-3.75-3.86-2.93-6.93h2c1.45,1.74,3.55,3.13,3.15,5.86Z"/><path class="cls-5" d="M75.25,101.08a13.54,13.54,0,0,0-4-6.69c-4.32-4.42-7.48-9.66-10.6-14.9-1.29-2.18-2.84-3.08-5.23-2.79l-1.72-5.2c3.2-2.89,6.88-.29,10.33-.82,2.44-.38,3.53-.8,3.28-3.48C67,63.93,67,60.63,67,57.34L72.07,59c.53,6.34,6,8.93,9.67,13,2.17,2.4,4,1.51,6,.12a1.45,1.45,0,0,1,1.34.35c2.46,3,6.71,4.55,7,9.15a8.35,8.35,0,0,1-.21.91c-3.48,3.6-6.38,7.78-10.61,10.63-2.64-3.86-6.49-6-10.78-7.42-1.29-.43-2.94-1.54-4,.38-.82,1.54-1,3.46.29,4.69,2.64,2.51,3.87,6.3,7.35,8l-.09,1A3.48,3.48,0,0,1,75.25,101.08Z"/><path class="cls-2" d="M96.14,81.56c-.32-4.6-4.57-6.19-7-9.15a1.45,1.45,0,0,0-1.34-.35c-2.07,1.39-3.86,2.28-6-.12-3.64-4-9.14-6.62-9.67-13C84.31,59.92,93,67,100.82,75.59A251.07,251.07,0,0,1,116.75,95.4c5.27,7.06,5.26,7.06-.54,14.33l-1,1.32a.6.6,0,0,1-.54.7,2.08,2.08,0,0,0-.63.68l-.18.22-.81.86-.12.13c-3.09,0-3.84-1.7-1.64-3.44,5.4-4.24,5.34-8.41.84-13.09-.09-.09,0-.32-.06-.48-1.81-7.32-7.81-11.62-12.41-16.88-1.05-1.2-2.1.84-2.87,1.81A1.38,1.38,0,0,1,96.14,81.56Z"/><path class="cls-6" d="M67,57.34c.09,3.29,0,6.59.31,9.86.25,2.67-.84,3.1-3.28,3.48-3.45.53-7.13-2.07-10.33.82C50.55,64.29,45.85,58.12,41,52c0-.8-.08-1.6-.14-2.4s-1.28-2,.1-2.44,1.9.77,2.08,2l1.06,1.53,0-.07A2,2,0,0,0,45,52.83l.9,1.07A68.68,68.68,0,0,0,57,66.64c1.42.52,1.47,3.77,3.65,2.27,1.43-1,4-1.89,3.11-4.49a28.41,28.41,0,0,0-2.71-4.72c.59-.06,1.53-.13,1.3-.82a3.43,3.43,0,0,0-3.23-2.24c-.15-1.16-.43-2.27-1.8-2.53a.67.67,0,0,0-.84.85c.28,1.36,1.38,1.64,2.55,1.79l1,2c-2.4-.6-3.78,1.92-6,2-2.39-2.63-4.29-5.77-7.74-7.27l-1.07-.92-.22-1.8c.8-2.16,4.22-2.22,4.11-5.12A104.78,104.78,0,0,0,67,57.34Z"/><path class="cls-5" d="M112.05,96.64c0,.16,0,.39.06.48,4.5,4.67,4.56,8.84-.84,13.09-2.21,1.73-1.45,3.48,1.64,3.44A32.57,32.57,0,0,1,104,121.5l-2-2.82c4.42-5.68,4.27-7.55-.75-9a2.2,2.2,0,0,1,0-.6,28.39,28.39,0,0,0,8-9.29l.78-1Z"/><path class="cls-5" d="M35,46.62c-2.54.51-2.5-2.06-3.6-3.19s-1.79-3.36-4.23-2.36h0l3.14-4.28,4.81-4.28c3,2,6.74,3.24,8.14,7.11Z"/><path class="cls-7" d="M35,46.62l8.22-7c2.64,1.32,3.55,4.37,6,5.93.12,2.9-3.31,3-4.11,5.12l-1,0,0,.07-1.06-1.53c-.18-1.22-.74-2.43-2.08-2s-.16,1.6-.1,2.44S41,51.24,41,52Z"/><path class="cls-8" d="M35.09,32.52l-4.81,4.28A20.06,20.06,0,0,0,19,38.61c1-2.38-3.75-2.27-2.11-4.91,6.39,1.94,10.3-2,14.17-6A10.61,10.61,0,0,1,35.09,32.52Z"/><path class="cls-9" d="M19,38.61a20.06,20.06,0,0,1,11.26-1.8l-3.14,4.28c-1.91,3.73-5.68,3.81-9.07,4.63-.43-1.82.92-2.84,1.83-4.06,1.32-.14,3.56.25,2.8-1.89-.67-1.89-2.4.34-3.69.1Z"/><path class="cls-8" d="M28.08,48.71c.21,1.28-2.11,2.23.11,4s-1,3.89-.94,6.05c0,.49-1.62.54-1.57.36.59-2.32-4.62-1.56-2.39-4.81,1.7-2.49-4.49-.44-2.35-3.6C23.63,51.14,25.54,48.81,28.08,48.71Z"/><path class="cls-9" d="M31.08,27.7c-3.87,4-7.77,7.94-14.17,6C20.47,29,25.34,27.31,31.08,27.7Z"/><path class="cls-3" d="M15.65,13.67a1.67,1.67,0,0,1,2,1.1c.76,3.58-2.78,4.39-4.46,6.32S10,21.69,9,19.86C10.33,16.86,11.45,13.6,15.65,13.67Z"/><path class="cls-8" d="M18.06,45.72c3.4-.81,7.16-.9,9.07-4.63h0A5,5,0,0,1,29,44.76c-3,.7-5.86,1.72-8.09,4C18.75,48.87,17.84,47.83,18.06,45.72Z"/><path class="cls-9" d="M20.91,48.76c2.23-2.27,5.08-3.3,8.09-4h0q0,.45,0,.9l-1,3c-2.54.11-4.45,2.43-7.14,2Q20.92,49.73,20.91,48.76Z"/><path class="cls-10" d="M15.65,13.67c-4.2-.07-5.33,3.19-6.68,6.19-.79-.58-1.82-1-1.71-2.23,1.31-1.62,1.44-4.12,3.74-5l2.22-1.07Z"/><path class="cls-8" d="M19,39.87c1.29.24,3-2,3.69-.1.76,2.14-1.48,1.75-2.8,1.89Z"/><path class="cls-8" d="M29,45.67q0-.45,0-.9c.4.09,1.15.16,1.16.27C30.23,45.92,29.48,45.55,29,45.67Z"/><path class="cls-5" d="M115.19,111.05l1-1.32Z"/><path class="cls-5" d="M114,112.43a2.08,2.08,0,0,1,.63-.68Z"/><path class="cls-5" d="M113,113.51l.81-.86Z"/><path class="cls-11" d="M75.25,101.08a3.48,3.48,0,0,0,2.86-1.28c5,5.55,9.66,11.41,17.07,14l-.31.87c-2.94,1.59-5.34,1-7.73-1.36C83.08,109.29,77.92,106.41,75.25,101.08Z"/><path class="cls-12" d="M94.87,114.62l.31-.87c2.48-.69,3.93-2.93,6.12-4.06,5,1.44,5.18,3.3.75,9A9.91,9.91,0,0,1,94.87,114.62Z"/><path class="cls-6" d="M109.3,99.81a28.39,28.39,0,0,1-8,9.29c-4.39-6.1-9.44-11.51-16-15.33a4,4,0,0,1,0-.67c4.23-2.85,7.13-7,10.61-10.63.31,3.06,2.59,4.84,4.38,7C103.24,93,107.58,95.26,109.3,99.81Z"/><path class="cls-13" d="M85.3,93.77c6.57,3.82,11.63,9.23,16,15.33a2.19,2.19,0,0,0,0,.6c-2.19,1.12-3.63,3.37-6.11,4.06-7.41-2.55-12.11-8.41-17.07-14l.09-1L80,98.49a29,29,0,0,0,11.45,9.91c.93.47,2.06,1.68,3.09.55s.58-2.6-.43-3.57C90.59,102,87.77,97.71,83,95.67Z"/><path class="cls-12" d="M85.3,93.77,83,95.67l-3,2.82-1.82.27c-3.48-1.71-4.71-5.5-7.35-8-1.29-1.23-1.11-3.15-.29-4.69,1-1.92,2.68-.81,4-.38,4.28,1.43,8.14,3.57,10.78,7.42A4.06,4.06,0,0,0,85.3,93.77Z"/><path class="cls-14" d="M109.3,99.81c-1.72-4.55-6.06-6.84-9-10.35-1.79-2.15-4.08-3.93-4.38-7a8.34,8.34,0,0,0,.21-.91,1.39,1.39,0,0,0,.62,0c5.59,4.87,11.24,9.69,13.31,17.27Z"/><path class="cls-11" d="M110.08,98.84c-2.07-7.58-7.73-12.4-13.31-17.27.77-1,1.82-3,2.87-1.81,4.6,5.26,10.6,9.56,12.41,16.88Z"/><path class="cls-15" d="M61.06,59.7a28.4,28.4,0,0,1,2.71,4.72c.91,2.6-1.68,3.51-3.11,4.49-2.18,1.49-2.23-1.76-3.65-2.27.71-2.81-2-3.93-2.92-6,2.19,0,3.57-2.56,6-2v0l1,1Z"/><path class="cls-14" d="M54.1,60.68c.88,2,3.63,3.16,2.92,6A68.58,68.58,0,0,1,45.86,53.9l.5-.5C49.8,54.91,51.71,58.05,54.1,60.68Z"/><path class="cls-11" d="M59,56.75c-1.16-.15-2.27-.42-2.55-1.79a.67.67,0,0,1,.84-.85c1.37.26,1.65,1.36,1.8,2.53Z"/><path class="cls-11" d="M59.13,56.64a3.43,3.43,0,0,1,3.23,2.24c.23.69-.71.76-1.3.82h0l-1-1v0l-1-2Z"/><path class="cls-14" d="M44.08,50.65l1,0,.22,1.8-.34.35A2,2,0,0,1,44.08,50.65Z"/><path class="cls-14" d="M43.06,49.19l1.06,1.53Z"/><path class="cls-14" d="M45.29,52.49l1.07.92-.5.5L45,52.83Z"/><path class="cls-16" d="M80,98.49l3-2.82c4.74,2,7.56,6.3,11.11,9.71,1,1,1.46,2.44.43,3.57s-2.16-.08-3.09-.55A29,29,0,0,1,80,98.49Z"/><path class="cls-6" d="M60.05,58.7l1,1Z"/><text class="cls-17" transform="translate(24.95 17.6)">bonvoyage</text></svg>